<svg xmlns="http://www.w3.org/2000/svg" xmlns:xlink="http://www.w3.org/1999/xlink" fill="none" version="1.1" width="508" height="286" viewBox="0 0 508 286"><defs><clipPath id="master_svg0_276_03627"><rect x="0" y="0" width="508" height="286" rx="15"/></clipPath></defs><g clip-path="url(#master_svg0_276_03627)"><rect x="0" y="0" width="508" height="286" rx="15" fill="#27343E" fill-opacity="1"/><g><path d="M89.55999877929688,170.84000091552736C100.35999877929687,170.84000091552736,106.65999877929687,164.72000091552735,106.65999877929687,150.02000091552733L106.65999877929687,125.54000091552734L98.13999877929687,125.54000091552734L98.13999877929687,150.80000091552733C98.13999877929687,160.04000091552734,94.71999877929687,163.16000091552735,89.55999877929688,163.16000091552735C84.33999877929688,163.16000091552735,81.09999877929687,160.04000091552734,81.09999877929687,150.80000091552733L81.09999877929687,125.54000091552734L72.27999877929688,125.54000091552734L72.27999877929688,150.02000091552733C72.27999877929688,164.72000091552735,78.63999877929687,170.84000091552736,89.55999877929688,170.84000091552736ZM117.33999877929688,170.00000091552735L126.21999877929687,170.00000091552735L126.21999877929687,152.00000091552735L141.99999877929687,152.00000091552735L141.99999877929687,144.56000091552735L126.21999877929687,144.56000091552735L126.21999877929687,132.98000091552734L144.6999987792969,132.98000091552734L144.6999987792969,125.54000091552734L117.33999877929688,125.54000091552734L117.33999877929688,170.00000091552735ZM164.67999877929688,170.84000091552736C173.61999877929688,170.84000091552736,179.61999877929688,165.68000091552733,179.61999877929688,158.96000091552736C179.61999877929688,153.20000091552734,176.1999987792969,149.96000091552736,172.11999877929688,147.68000091552733L172.11999877929688,147.38000091552735C174.99999877929687,145.40000091552736,177.8199987792969,141.92000091552734,177.8199987792969,137.66000091552735C177.8199987792969,130.58000091552734,172.77999877929688,125.90000191552734,164.91999877929686,125.90000191552734C157.17999877929688,125.90000191552734,151.53999877929687,130.46000091552733,151.53999877929687,137.66000091552735C151.53999877929687,142.16000091552735,154.05999877929688,145.34000091552736,157.41999877929686,147.74000091552733L157.41999877929686,147.98000091552734C153.33999877929688,150.20000091552734,149.79999877929686,153.62000091552733,149.79999877929686,158.96000091552736C149.79999877929686,165.92000091552734,156.09999877929687,170.84000091552736,164.67999877929688,170.84000091552736ZM167.43999877929687,145.28000091552735C162.8199987792969,143.42000091552734,159.33999877929688,141.62000091552733,159.33999877929688,137.66000091552735C159.33999877929688,134.06000091552735,161.73999877929685,132.14000091552734,164.73999877929685,132.14000091552734C168.45999877929688,132.14000091552734,170.61999877929688,134.66000091552735,170.61999877929688,138.20000091552734C170.61999877929688,140.78000091552735,169.53999877929687,143.06000091552735,167.43999877929687,145.28000091552735ZM164.85999877929686,164.60000091552735C160.71999877929687,164.60000091552735,157.41999877929686,162.02000091552733,157.41999877929686,158.00000091552735C157.41999877929686,154.94000091552735,159.15999877929687,152.30000091552733,161.49999877929687,150.44000091552735C167.1999987792969,152.78000091552735,171.39999877929688,154.34000091552736,171.39999877929688,158.66000091552735C171.39999877929688,162.50000091552735,168.6399987792969,164.60000091552735,164.85999877929686,164.60000091552735ZM198.99999877929687,170.84000091552736C207.09999877929687,170.84000091552736,214.47999877929686,165.32000091552734,214.47999877929686,155.84000091552736C214.47999877929686,146.60000091552735,208.29999877929689,142.34000091552736,200.79999877929689,142.34000091552736C198.7599987792969,142.34000091552736,197.1999987792969,142.76000091552734,195.45999877929688,143.54000091552734L196.29999877929686,134.12000091552736L212.43999877929687,134.12000091552736L212.43999877929687,126.74000091552735L188.67999877929688,126.74000091552735L187.47999877929686,148.28000091552735L191.49999877929687,150.92000091552734C194.1399987792969,149.24000091552733,195.5799987792969,148.58000091552734,198.15999877929687,148.58000091552734C202.59999877929687,148.58000091552734,205.65999877929687,151.28000091552735,205.65999877929687,156.08000091552734C205.65999877929687,160.94000091552735,202.41999877929686,163.64000091552734,197.79999877929686,163.64000091552734C193.71999877929687,163.64000091552734,190.53999877929687,161.60000091552735,188.01999877929688,159.14000091552734L183.93999877929687,164.78000091552735C187.29999877929686,168.08000091552734,191.91999877929686,170.84000091552736,198.99999877929687,170.84000091552736ZM235.47999877929686,170.84000091552736C244.59999877929687,170.84000091552736,250.53999877929687,162.86000091552734,250.53999877929687,148.22000091552735C250.53999877929687,133.58000091552734,244.59999877929687,125.90000191552734,235.47999877929686,125.90000191552734C226.3599987792969,125.90000191552734,220.41999877929686,133.52000091552733,220.41999877929686,148.22000091552735C220.41999877929686,162.86000091552734,226.3599987792969,170.84000091552736,235.47999877929686,170.84000091552736ZM235.47999877929686,163.94000091552735C231.6399987792969,163.94000091552735,228.75999877929686,160.22000091552735,228.75999877929686,148.22000091552735C228.75999877929686,136.16000091552735,231.6399987792969,132.80000091552733,235.47999877929686,132.80000091552733C239.31999877929687,132.80000091552733,242.1399987792969,136.16000091552735,242.1399987792969,148.22000091552735C242.1399987792969,160.22000091552735,239.31999877929687,163.94000091552735,235.47999877929686,163.94000091552735Z" fill="#55A4F1" fill-opacity="1"/></g></g></svg>