<svg xmlns="http://www.w3.org/2000/svg" xmlns:xlink="http://www.w3.org/1999/xlink" fill="none" version="1.1" width="508" height="286" viewBox="0 0 508 286"><defs><clipPath id="master_svg0_276_03540"><rect x="0" y="0" width="508" height="286" rx="15"/></clipPath><clipPath id="master_svg1_276_03612"><rect x="54" y="83" width="125" height="125" rx="0"/></clipPath></defs><g clip-path="url(#master_svg0_276_03540)"><rect x="0" y="0" width="508" height="286" rx="15" fill="#27343E" fill-opacity="1"/><g clip-path="url(#master_svg1_276_03612)"><g><path d="M116.2993625,124.234375C104.3352125,124.234375,94.6015625,133.858725,94.6015625,145.68857500000001C94.6015625,157.518975,104.3352125,167.144075,116.2993625,167.144075C117.4635625,167.144075,118.6944625,167.024575,120.1808625,166.767075C122.4020625,166.366475,123.8784625,164.259875,123.4722625,162.070875C123.1152625,160.150375,121.4344625,158.756375,119.4746625,158.756375C119.2218625,158.756375,118.9668625,158.780375,118.72716249999999,158.825175C117.7582625,158.996475,116.9897625,159.076275,116.30936249999999,159.076275C108.8435625,159.076275,102.7698925,153.070175,102.7698925,145.68857500000001C102.7698925,138.307375,108.8342625,132.302155,116.2888625,132.302155C123.74946249999999,132.302155,129.8181625,138.307375,129.8181625,145.68857500000001C129.8181625,146.407875,129.7379625,147.163575,129.5632625,148.072875C129.1569625,150.261375,130.6337625,152.368475,132.8540625,152.76817499999999C133.0990625,152.812175,133.3478625,152.834875,133.59506249999998,152.834875C135.5731625,152.834875,137.2596625,151.439575,137.6030625,149.524775C137.8640625,148.126775,137.9861625,146.908175,137.9861625,145.68947500000002C137.9913625,139.967575,135.7356625,134.582275,131.63446249999998,130.525485C127.53336250000001,126.468615,122.0870625,124.234375,116.2993625,124.234375Z" fill="#55A4F1" fill-opacity="1" style="mix-blend-mode:passthrough"/></g><g><path d="M168.55903125,135.83101249999999C168.29303125,134.4362125,167.21203125,133.3286125,165.80503125,133.0086125C160.68913125,131.8479125,156.43223125,128.7448125,153.81953125,124.2744125C151.21513125,119.81151249999999,150.62233125,114.6187125,152.14843125,109.6615125C152.57913125,108.3036125,152.14923125,106.82521249999999,151.05563125,105.8968125C145.94573125,101.5362525,140.12593125,98.2138725,133.75883125000001,96.0231115C133.37403125,95.8902017,132.97303125000002,95.8229975,132.56543125000002,95.8229975C131.55763125,95.8229975,130.59003124999998,96.2418385,129.91343125,96.9675925C126.34453125,100.7571525,121.51003125,102.8441125,116.30133125,102.8441125C111.09213125,102.8441125,106.25423125,100.7536525,102.67733125000001,96.9566025C101.71573125,95.9392935,100.17363125,95.5513075,98.82233124999999,96.0133695C92.41563125,98.2316125,86.59923125,101.5573625,81.53213124999999,105.89971249999999C80.45603125,106.8264125,80.02793125,108.2948125,80.44153125,109.6439125C81.97793125,114.6055125,81.38873125,119.7977125,78.78163125,124.2656125C76.18073125,128.7329125,71.92741125,131.8347125,66.79751125,133.0012125C65.38872125,133.3319125,64.30770125,134.44311249999998,64.04362925,135.8291125C63.40543625,139.1457125,63.08203125,142.4632125,63.08203125,145.68881249999998C63.08203125,148.9147125,63.40543625,152.2322125,64.04313025,155.5476125C64.30857125,156.9407125,65.38872125,158.0487125,66.79614125,158.3700125C71.91254125,159.5312125,76.16943125,162.6329125,78.78253125,167.1038125C81.38863125,171.5708125,81.97793125,176.7630125,80.44063125,181.7272125C80.03003125000001,183.06631249999998,80.45553125,184.53651250000001,81.53603125000001,185.4820125C86.64453125,189.8407125,92.46063125,193.1626125,98.82883125000001,195.3578125C100.22843125,195.8323125,101.72653125,195.4248125,102.66843125,194.42011250000002C106.24493125000001,190.6249125,111.08223125,188.5344125,116.29073125,188.5344125C121.49913125,188.5344125,126.33743125000001,190.6249125,129.90893125,194.4162125C130.58723125,195.1432125,131.55623125,195.5612125,132.56793125000002,195.5612125C132.96803125,195.5612125,133.36603125,195.4977125,133.76783125,195.3660125C140.13093125,193.1726125,145.94733125,189.8504125,151.05933125,185.4890125C152.13253125,184.5640125,152.56183125,183.0930125,152.15093124999999,181.7342125C150.61303125,176.76861250000002,151.20543125,171.5773125,153.81983125,167.11341249999998C156.42303125,162.64261249999998,160.67933125000002,159.5413125,165.80603125,158.3796125C167.19703125,158.0632125,168.27603125000002,156.95941249999998,168.55903125,155.5590125C169.19703125,152.2406125,169.52003125,148.92351250000002,169.52003125,145.6993125C169.52003125,142.4682125,169.19703125,139.1472125,168.55903125,135.83101249999999ZM142.93643125,179.4198125C139.75933125,181.8804125,136.25463125,183.8819125,132.50093125,185.37911250000002C128.02313125,181.4553125,122.29563125,179.3025125,116.29093125,179.3025125C110.31853125,179.3025125,104.59193125,181.4553125,100.08393125,185.38001250000002C96.33103125,183.88311249999998,92.82603125,181.8820125,89.64803125,179.4214125C90.85583125,173.6302125,89.87863125,167.6478125,86.86923125,162.4991125C83.88483125,157.37631249999998,79.12663125,153.5466125,73.41873125000001,151.6544125C73.12813125,149.6594125,72.98120125,147.6556125,72.98120125,145.68891250000001C72.98120125,143.7305125,73.12813125,141.7276125,73.41873125000001,139.7256125C79.10883125000001,137.8470125,83.86603124999999,134.01771250000002,86.86923125,128.8796125C89.86283125,123.7497125,90.83973125,117.7671125,89.64623125,111.9582125C92.82303125,109.4985125,96.32783125,107.49731249999999,100.08253125,105.9992125C104.57743124999999,109.9300125,110.30453125,112.0858125,116.29083125,112.0858125C122.29603125,112.0858125,128.02303125,109.9330125,132.50083125,106.0092125C136.25463125,107.5069125,139.75883125000001,109.5081125,142.93553125,111.96781250000001C141.73803125,117.7825125,142.71143125,123.7640125,145.70253125,128.88921249999999C148.68663125,134.0121125,153.44373124999998,137.84221250000002,159.15253124999998,139.7352125C159.44323125,141.7355125,159.59013125,143.7392125,159.59013125,145.70941249999998C159.60753125,147.59461249999998,159.46413124999998,149.5909125,159.16283125,151.6544125C153.45453125,153.5470125,148.69683125,157.3762125,145.71233125,162.49861249999998C142.72543124999999,167.6169125,141.74903125,173.5985125,142.93643125,179.4198125Z" fill="#55A4F1" fill-opacity="1" style="mix-blend-mode:passthrough"/></g></g></g></svg>