<svg xmlns="http://www.w3.org/2000/svg" xmlns:xlink="http://www.w3.org/1999/xlink" fill="none" version="1.1" width="508" height="286" viewBox="0 0 508 286"><defs><clipPath id="master_svg0_276_03393"><rect x="0" y="0" width="508" height="286" rx="0"/></clipPath></defs><g clip-path="url(#master_svg0_276_03393)"><rect x="0" y="0" width="508" height="286" rx="0" fill="#27343E" fill-opacity="1"/><g><path d="M130.188978125,168.07279375L123.483378125,168.07279375L120.81697812499999,161.14629375L108.636528125,161.14629375L106.112078125,168.07279375L99.580078125,168.07279375L111.460778125,137.59008205L117.929678125,137.59008205L130.188978125,168.07279375ZM118.844778125,155.98699375L114.647878125,144.67430375L110.529878125,155.98699375L118.844778125,155.98699375ZM133.454978125,168.07279375L133.454978125,137.59008205L143.331878125,137.59008205C145.781478125,137.48619185,148.235178125,137.63954885,150.652778125,138.04763975C152.411378125,138.51389675,153.958578125,139.56574375,155.038978125,141.02963375C156.276178125,142.75322375,156.898478125,144.84244375,156.806078125,146.96208375C156.869778125,148.60119375,156.516978125,150.22969375,155.780478125,151.69539375C155.176778125,152.89599375,154.288378125,153.93059375,153.192978125,154.70899375C152.247078125,155.39609375,151.174678125,155.88939375,150.037378125,156.16049375C147.950278125,156.48739375,145.838378125,156.62999375,143.726278125,156.58649375L139.608278125,156.58649375L139.608278125,168.08849375L133.454978125,168.07279375ZM139.608278125,142.82830375L139.608278125,151.47449375L142.968978125,151.47449375C144.60867812499998,151.56569375,146.252678125,151.40609375,147.84427812500002,151.00119375C148.62407812499998,150.71009375,149.295878125,150.18699375,149.769178125,149.50229375C150.236078125,148.80239375,150.478178125,147.97679375,150.463378125,147.13563375C150.522178125,146.10211375,150.170578125,145.08717375,149.485178125,144.31141374999999C148.840178125,143.58755375,147.965378125,143.10830375,147.008078125,142.95452375C145.537578125,142.77367375,144.055478125,142.70510375,142.57447812499998,142.74941375L139.608278125,142.82830375ZM161.681378125,168.07279375L161.681378125,137.59008205L167.834778125,137.59008205L167.834778125,168.07279375L161.681378125,168.07279375Z" fill="#55A4F1" fill-opacity="1" style="mix-blend-mode:passthrough"/></g><g><path d="M139.6064109741211,168.83856486816407L132.70501097412108,168.82086486816405L132.70501097412108,136.84007906816407L143.3160109741211,136.84007906816407Q147.0713109741211,136.68247286816407,150.7776109741211,137.30809886816405L150.8116109741211,137.31384086816405L150.8449109741211,137.32268286816407Q153.8167109741211,138.11057486816406,155.6424109741211,140.58426486816407Q157.7002109741211,143.45101486816407,157.5567109741211,146.96386486816405Q157.6532109741211,149.63866486816406,156.45071097412108,152.03216486816407Q155.4475109741211,154.02706486816408,153.6274109741211,155.32036486816406Q152.0798109741211,156.44466486816407,150.2113109741211,156.89006486816407L150.1826109741211,156.89696486816405L150.1534109741211,156.90146486816406Q146.9514109741211,157.40296486816408,143.71091097412108,157.33636486816405L140.35831097412108,157.33646486816406L140.35831097412108,168.84046486816408L139.6064109741211,168.83856486816407ZM118.6255109741211,137.31023286816406L131.2990109741211,168.82276486816406L122.9685109741211,168.82276486816406L120.30201097412109,161.89626486816405L109.1614109741211,161.89626486816405L106.63699097412109,168.82276486816406L98.4828109741211,168.82276486816406L110.9481109741211,136.84007906816407L118.43641097412109,136.84007906816407L118.6255109741211,137.31023286816406ZM168.5847109741211,168.82276486816406L160.9314109741211,168.82276486816406L160.9314109741211,136.84007906816407L168.5847109741211,136.84007906816407L168.5847109741211,168.82276486816406ZM134.20501097412108,167.32466486816406L138.85831097412108,167.33656486816406L138.85831097412108,155.83656486816406L143.74171097412108,155.83666486816406Q146.8349109741211,155.90026486816407,149.8917109741211,155.42416486816407Q151.45231097412108,155.04646486816407,152.7585109741211,154.09756486816406Q154.2748109741211,153.02016486816407,155.1103109741211,151.35866486816406Q156.1463109741211,149.29686486816405,156.0566109741211,146.99116486816405L156.0554109741211,146.96026486816407L156.0568109741211,146.92946486816408Q156.1881109741211,143.91672486816407,154.4355109741211,141.47500486816406Q152.93291097412109,139.43906486816405,150.4933109741211,138.78135486816407Q146.9518109741211,138.18722486816407,143.3636109741211,138.33940486816405L143.3477109741211,138.34007486816407L134.20501097412108,138.34007486816407L134.20501097412108,167.32466486816406ZM129.0789109741211,167.32276486816406L117.4229109741211,138.34007486816407L111.9734109741211,138.34007486816407L100.6773409741211,167.32276486816406L105.58716097412109,167.32276486816406L108.11161097412109,160.39626486816405L121.33191097412109,160.39626486816405L123.9983109741211,167.32276486816406L129.0789109741211,167.32276486816406ZM162.4314109741211,167.32276486816406L167.0847109741211,167.32276486816406L167.0847109741211,138.34007486816407L162.4314109741211,138.34007486816407L162.4314109741211,167.32276486816406ZM142.5521109741211,141.99975486816408L142.5546109741211,141.99967486816405Q144.8351109741211,141.93162486816405,147.0996109741211,142.21013486816406L147.1134109741211,142.21182486816406L147.1270109741211,142.21401486816407Q148.8705109741211,142.49409486816407,150.0472109741211,143.81482486816407Q151.3122109741211,145.24646486816405,151.21371097412108,147.15036486816408Q151.2323109741211,148.66036486816407,150.3861109741211,149.92876486816405Q149.5251109741211,151.17426486816407,148.1066109741211,151.70386486816406L148.0685109741211,151.71806486816405L148.0292109741211,151.72806486816407Q145.5265109741211,152.36466486816406,142.9484109741211,152.22456486816407L138.85831097412108,152.22456486816407L138.85831097412108,142.09798486816408L142.5521109741211,141.99975486816408ZM109.45871097412109,156.73696486816405L114.6412109741211,142.50004486816405L119.9229109741211,156.73696486816405L109.45871097412109,156.73696486816405ZM142.5944109741211,143.49914486816405L140.35831097412108,143.55862486816406L140.35831097412108,150.72456486816407L142.9898109741211,150.72456486816407L143.0106109741211,150.72566486816407Q145.3486109741211,150.85566486816407,147.6186109741211,150.28466486816407Q148.5703109741211,149.91766486816405,149.1522109741211,149.07586486816408Q149.7321109741211,148.20626486816406,149.7135109741211,147.14886486816405L149.7130109741211,147.12096486816407L149.7146109741211,147.09306486816405Q149.78881097412108,145.78777486816406,148.9231109741211,144.80800486816406Q148.1100109741211,143.89541486816407,146.9023109741211,143.69716486816407Q144.7572109741211,143.43444486816406,142.5969109741211,143.49907486816406L142.5944109741211,143.49914486816405ZM114.6545109741211,146.84856486816406L111.6010109741211,155.23696486816405L117.76651097412109,155.23696486816405L114.6545109741211,146.84856486816406Z" fill-rule="evenodd" fill="#55A4F1" fill-opacity="1"/></g><g><path d="M169.838,187.8594L137.2095,187.8594L137.2095,180.6017L169.838,180.6017C179.226,180.6017,186.704,176.4837,190.917,168.98919999999998C195.546,160.28379999999999,195.34300000000002,149.8032,190.381,141.2834C185.332,132.9843,176.18099999999998,128.6612,164.5524,129.0241L160.81310000000002,129.1661L160.81310000000002,125.3952C160.81310000000002,117.5063,158.1782,110.92699999999999,153.224,106.4619C148.5291,102.37652,142.4854,100.17831,136.2629,100.29277C124.0035,100.29277,110.2927,108.1817,110.2927,125.4268L110.2927,129.1661L106.4744,128.961C94.65690000000001,128.3614,85.348,132.5583,80.20439999999999,140.7943C75.18365,149.1288,74.93769,159.49509999999998,79.5575,168.0583C84.0227,176.1208,92.1798,180.5543,102.59309999999999,180.5543L115.7675,180.5543L115.7675,187.8121L102.59309999999999,187.8121C89.6395,187.8121,78.92644,181.8954,73.21488,171.5925C67.31003,160.69459999999998,67.62833,147.48239999999998,74.05111,136.88139999999999C80.094,127.2097,90.3495,121.861,103.2084,121.5928C104.9913,102.84877,120.9742,93.00343836,136.2629,93.00343836C144.2874,92.886536,152.0694,95.75417,158.0993,101.0501C163.909,106.4394,167.4229,113.8571,167.9131,121.7663C180.535,122.25540000000001,190.66500000000002,127.77770000000001,196.58100000000002,137.54410000000001C202.962,148.28640000000001,203.213,161.59480000000002,197.244,172.57080000000002C191.769,182.2741,181.78199999999998,187.8594,169.838,187.8594Z" fill="#55A4F1" fill-opacity="1" style="mix-blend-mode:passthrough"/></g><g><path d="M197.89735150146484,172.93932779541015Q193.68535150146485,180.40402779541017,186.33235150146484,184.50872779541015Q178.98635150146484,188.60952779541014,169.83835150146484,188.60942779541017L136.45955150146483,188.60942779541017L136.45955150146483,179.85162779541014L169.83835150146484,179.85162779541014Q183.94635150146485,179.85172779541017,190.25935150146483,168.62922779541015Q193.63535150146484,162.27542779541017,193.49635150146486,155.08122779541014Q193.35635150146484,147.88252779541017,189.73235150146485,141.66092779541015Q182.16635150146485,129.22472779541016,164.57585150146485,129.77372779541014L160.06305150146483,129.94512779541014L160.06305150146483,125.39522779541016Q160.06315150146486,113.63542779541015,152.72185150146484,107.01902779541015Q145.65525150146485,100.87011779541015,136.27665150146484,101.04263779541016Q126.28175150146484,101.04276779541016,119.16025150146484,106.96932779541015Q111.04265150146485,113.72492779541015,111.04265150146485,125.42672779541016L111.04265150146485,129.95742779541015L106.43425150146484,129.70992779541015Q97.75555150146485,129.26962779541014,91.14475150146484,132.24812779541014Q84.57825150146485,135.20672779541016,80.84055150146484,141.19162779541017Q77.18391150146485,147.26172779541017,77.01553150146485,154.35832779541016Q76.84716150146484,161.45492779541016,80.21765150146484,167.70222779541015Q86.91995150146485,179.80432779541016,102.59315150146485,179.80432779541016L116.51755150146485,179.80432779541016L116.51755150146485,188.56212779541016L102.59315150146485,188.56212779541016Q92.68535150146485,188.56202779541016,84.82575150146485,184.22242779541017Q76.94747150146485,179.87252779541015,72.55893150146484,171.95612779541017Q68.03164650146485,163.60072779541014,68.26034870146485,154.10752779541016Q68.48904850146485,144.61432779541016,73.40965150146485,136.49282779541016Q82.76725150146484,121.51562779541015,102.53035150146485,120.86082779541016Q104.01465150146484,107.66842779541015,114.20835150146485,99.67880779541015Q123.68215150146484,92.25343811541016,136.26285150146484,92.25343811541016Q149.00855150146486,92.06767579541015,158.59425150146484,100.48658779541016L158.60195150146484,100.49331779541015L158.60935150146486,100.50025779541016Q167.63155150146486,108.86952779541016,168.61335150146485,121.04762779541016Q177.86735150146484,121.53532779541015,185.12235150146483,125.51872779541016Q192.68935150146484,129.67312779541015,197.22235150146486,137.15552779541017Q202.11235150146484,145.38822779541016,202.29335150146485,154.95562779541015Q202.47435150146484,164.52262779541016,197.90235150146484,172.92912779541015L197.89735150146484,172.93932779541015ZM196.59035150146485,172.20212779541015Q200.96735150146483,164.14872779541014,200.79435150146483,154.98402779541016Q200.62035150146485,145.81312779541014,195.94035150146485,137.93272779541016Q187.05035150146483,123.25852779541016,167.88405150146485,122.51572779541016L167.20645150146484,122.48952779541015L167.16455150146484,121.81272779541015Q166.41975150146484,109.79632779541015,157.59675150146484,101.60689779541016Q148.44765150146486,93.57600779541016,136.26285150146484,93.75343779541015Q124.19995150146485,93.75342779541016,115.13365150146484,100.85939779541016Q105.19285150146484,108.65082779541015,103.95505150146485,121.66382779541016L103.89185150146484,122.32862779541016L103.22405150146484,122.34262779541015Q83.76565150146484,122.74842779541015,74.69255150146485,137.27002779541016Q69.97899150146485,145.05002779541016,69.75991150146484,154.14362779541017Q69.54084150146484,163.23742779541016,73.87083150146485,171.22892779541016Q78.05020150146484,178.76802779541015,85.55075150146484,182.90932779541015Q93.07195150146484,187.06212779541016,102.59315150146485,187.06212779541016L115.01755150146485,187.06212779541016L115.01755150146485,181.30432779541016L102.59315150146485,181.30432779541016Q94.59565150146484,181.30432779541016,88.48695150146484,177.98892779541018Q82.35755150146484,174.66222779541016,78.89745150146484,168.41442779541018Q75.33813150146484,161.81702779541016,75.51595150146484,154.32272779541017Q75.69377150146484,146.82852779541014,79.56825150146484,140.39702779541017Q83.54715150146484,134.02602779541016,90.52855150146485,130.88052779541016Q97.46965150146485,127.75312779541017,106.51465150146484,128.21202779541017L109.54265150146485,128.37472779541017L109.54265150146485,125.42672779541016Q109.54265150146485,113.02172779541016,118.20075150146485,105.81632779541016Q125.73925150146485,99.54276779541016,136.24905150146486,99.54289779541016Q146.20455150146483,99.35976779541015,153.72605150146484,105.90472779541015Q161.56315150146486,112.96802779541015,161.56305150146483,125.39522779541016L161.56305150146483,128.38712779541015L164.52905150146483,128.27442779541016Q173.43835150146484,127.99642779541016,180.25535150146484,131.22782779541015Q187.12135150146486,134.48282779541017,191.02835150146484,140.90592779541015Q194.84935150146484,147.46412779541015,194.99535150146482,155.05212779541017Q195.14235150146484,162.64022779541017,191.57935150146483,169.34132779541017L191.57535150146484,169.34902779541017L191.57135150146485,169.35672779541017Q184.82835150146485,181.35172779541017,169.83835150146484,181.35162779541014L137.95955150146483,181.35162779541014L137.95955150146483,187.10942779541017L169.83835150146484,187.10942779541017Q178.59635150146482,187.10942779541017,185.60135150146485,183.19892779541016Q192.58135150146484,179.30262779541016,196.58535150146486,172.21242779541015L196.58735150146484,172.20752779541016Q196.58935150146485,172.20482779541015,196.59035150146485,172.20212779541015Z" fill-rule="evenodd" fill="#55A4F1" fill-opacity="1"/></g><g><path d="M131.6875,184.261591875L144.3097,193.728221875L144.3097,174.794921875L131.6875,184.261591875Z" fill="#55A4F1" fill-opacity="1" style="mix-blend-mode:passthrough"/></g><g><path d="M145.0597,173.294921875L145.0597,195.228221875L130.4375,184.261621875L143.8597,174.194922875L145.0597,173.294921875ZM132.9375,184.261621875L143.5597,176.294921875L143.5597,192.228221875L132.9375,184.261621875Z" fill-rule="evenodd" fill="#55A4F1" fill-opacity="1"/></g></g></svg>