<svg xmlns="http://www.w3.org/2000/svg" xmlns:xlink="http://www.w3.org/1999/xlink" fill="none" version="1.1" width="508" height="286" viewBox="0 0 508 286"><defs><clipPath id="master_svg0_276_03831"><rect x="0" y="0" width="508" height="286" rx="15"/></clipPath></defs><g clip-path="url(#master_svg0_276_03831)"><rect x="0" y="0" width="508" height="286" rx="15" fill="#27343E" fill-opacity="1"/><g><path d="M72.45999908447266,169.99999633789062L99.39999908447265,169.99999633789062L99.39999908447265,162.55999633789062L81.33999908447265,162.55999633789062L81.33999908447265,125.53999633789063L72.45999908447266,125.53999633789063L72.45999908447266,169.99999633789062ZM106.41999908447266,169.99999633789062L115.23999908447266,169.99999633789062L115.23999908447266,136.39999633789063L106.41999908447266,136.39999633789063L106.41999908447266,169.99999633789062ZM110.85999908447266,130.93999633789062C113.85999908447266,130.93999633789062,115.95999908447266,129.07999633789063,115.95999908447266,126.13999633789062C115.95999908447266,123.25999633789063,113.85999908447266,121.33999633789062,110.85999908447266,121.33999633789062C107.73999908447266,121.33999633789062,105.75999908447265,123.25999633789063,105.75999908447265,126.13999633789062C105.75999908447265,129.07999633789063,107.73999908447266,130.93999633789062,110.85999908447266,130.93999633789062ZM136.95999908447266,170.83999633789062C139.89999908447265,170.83999633789062,142.23999908447266,170.11999633789063,144.09999908447264,169.57999633789063L142.59999908447264,163.15999633789062C141.69999908447267,163.51999633789063,140.37999908447267,163.87999633789062,139.29999908447266,163.87999633789062C136.29999908447266,163.87999633789062,134.67999908447266,162.07999633789063,134.67999908447266,158.23999633789063L134.67999908447266,143.35999633789064L143.01999908447266,143.35999633789064L143.01999908447266,136.39999633789063L134.67999908447266,136.39999633789063L134.67999908447266,127.33999633789062L127.41999908447266,127.33999633789062L126.39999908447265,136.39999633789063L121.17999908447266,136.81999633789061L121.17999908447266,143.35999633789064L125.91999908447266,143.35999633789064L125.91999908447266,158.29999633789063C125.91999908447266,165.73999633789063,128.97999908447267,170.83999633789062,136.95999908447266,170.83999633789062ZM163.41999908447264,170.83999633789062C167.55999908447265,170.83999633789062,171.81999908447267,169.39999633789063,175.11999908447265,167.11999633789063L172.11999908447265,161.71999633789062C169.65999908447264,163.21999633789062,167.31999908447267,163.99999633789062,164.61999908447265,163.99999633789062C159.57999908447266,163.99999633789062,155.97999908447264,161.17999633789063,155.25999908447267,155.71999633789062L175.95999908447266,155.71999633789062C176.19999908447267,154.87999633789062,176.37999908447267,153.25999633789064,176.37999908447267,151.63999633789064C176.37999908447267,142.27999633789062,171.57999908447266,135.55999633789062,162.33999908447265,135.55999633789062C154.35999908447266,135.55999633789062,146.67999908447266,142.33999633789062,146.67999908447266,153.19999633789064C146.67999908447266,164.29999633789063,153.99999908447268,170.83999633789062,163.41999908447264,170.83999633789062ZM155.07999908447266,149.77999633789062C155.79999908447266,144.9199963378906,158.91999908447264,142.39999633789063,162.45999908447266,142.39999633789063C166.83999908447265,142.39999633789063,168.81999908447267,145.27999633789062,168.81999908447267,149.77999633789062L155.07999908447266,149.77999633789062ZM197.79999908447266,170.83999633789062C205.35999908447266,170.83999633789062,211.77999908447265,165.31999633789061,211.77999908447265,156.49999633789062C211.77999908447265,147.43999633789062,206.43999908447265,143.11999633789063,198.99999908447268,143.11999633789063C196.17999908447266,143.11999633789063,192.39999908447265,144.85999633789064,189.93999908447267,147.85999633789064C190.35999908447266,136.81999633789061,194.49999908447268,133.09999633789062,199.53999908447264,133.09999633789062C202.11999908447265,133.09999633789062,204.87999908447264,134.4799963378906,206.37999908447264,136.21999633789062L211.11999908447265,130.93999633789062C208.41999908447266,128.23999633789063,204.45999908447266,125.89999633789063,198.99999908447268,125.89999633789063C190.05999908447265,125.89999633789063,181.83999908447265,133.0399963378906,181.83999908447265,149.5399963378906C181.83999908447265,164.35999633789064,189.33999908447265,170.83999633789062,197.79999908447266,170.83999633789062ZM190.17999908447266,154.0399963378906C192.39999908447265,150.61999633789063,195.03999908447264,149.4199963378906,197.31999908447267,149.4199963378906C201.15999908447264,149.4199963378906,203.67999908447266,151.57999633789063,203.67999908447266,156.49999633789062C203.67999908447266,161.59999633789062,200.97999908447267,164.17999633789063,197.61999908447265,164.17999633789063C193.95999908447266,164.17999633789063,191.01999908447266,161.35999633789064,190.17999908447266,154.0399963378906Z" fill="#55A4F1" fill-opacity="1"/></g></g></svg>