<svg xmlns="http://www.w3.org/2000/svg" xmlns:xlink="http://www.w3.org/1999/xlink" fill="none" version="1.1" width="508" height="286" viewBox="0 0 508 286"><defs><clipPath id="master_svg0_276_03540"><rect x="0" y="0" width="508" height="286" rx="0"/></clipPath></defs><g clip-path="url(#master_svg0_276_03540)"><rect x="0" y="0" width="508" height="286" rx="0" fill="#27343E" fill-opacity="1"/><g><path d="M141.151,168.0094L130.3198,168.0094L103.6584,138.0207L123.2379,125.1089C125.73740000000001,123.4428,127.8203,120.9438,129.0701,118.0282L142.81740000000002,118.0282L150.3159,121.77680000000001C151.1491,122.1933,151.9822,122.1933,152.3988,122.1933C153.232,122.1933,154.0652,121.77680000000001,154.8983,121.3603L160.3139,117.1952C161.9803,115.9456,162.397,113.0301,161.1471,111.364C159.8973,109.69800000000001,156.9813,109.2815,155.3149,110.531L151.9822,113.0301L148.233,111.364L148.233,103.8668L151.9822,102.20079L155.3149,104.6999C156.9813,105.9494,159.8973,105.9494,161.1471,103.8668C162.397,102.20079,162.397,99.28522,160.3139,98.03569L154.8983,93.87058999999999C153.6486,93.0375695,151.9822,92.621059,150.73250000000002,93.45408L143.23399999999998,97.20267L118.2389,97.20267C114.9062,96.78616,111.157,97.20267,107.8243,98.86871L70.74827,120.11070000000001L70.33169,120.5272C65.33267,123.4428,62,128.85739999999998,62,134.6886C62,138.8537,63.66634,142.6023,66.16584,145.5179L66.58243,145.93439999999998L86.1619,168.0094L82.8292,168.0094C71.16486,168.0094,62,177.1726,62,188.8349C62,191.334,63.66634,193,66.16584,193L157.8144,193C160.3139,193,161.9803,191.334,161.9803,188.8349C161.9803,177.1726,152.8154,168.0094,141.151,168.0094ZM72.8312,140.5197L72.41460000000001,140.10320000000002C71.16486,138.8537,70.33169,136.7711,70.33169,134.6886C70.33169,130.107,74.0809,126.3584,78.6634,126.3584C83.2458,126.3584,86.99510000000001,130.107,86.99510000000001,134.6886C86.99510000000001,139.2702,83.2458,143.0188,78.6634,143.0188C76.5805,143.0188,74.4975,142.1858,72.8312,140.5197ZM139.9013,109.69800000000001L130.3198,109.69800000000001C129.9033,108.44839999999999,129.48669999999998,106.7824,129.0701,105.5329L139.9013,105.5329L139.9013,109.69800000000001ZM111.5735,106.3659C114.9062,104.2833,119.0721,105.5329,121.155,108.865C123.2379,112.197,122.40469999999999,116.3621,119.0721,118.4447L98.2428,132.1895L91.9941,124.2758L91.5775,124.2758C90.3277,122.6098,88.6614,121.3603,86.99510000000001,120.5272L111.5735,106.3659ZM81.9961,150.9325C87.8282,149.683,92.41069999999999,145.5179,94.4936,139.6867L119.4887,167.5929L96.9931,167.5929L81.9961,150.9325ZM71.16486,184.6698C72.8312,179.6717,77.4136,176.33960000000002,82.8292,176.33960000000002L141.151,176.33960000000002C146.5666,176.33960000000002,151.1491,179.6717,152.8154,184.6698L71.16486,184.6698Z" fill="#55A4F1" fill-opacity="1" style="mix-blend-mode:passthrough"/></g><g><path d="M162.48000000000002,188.83489233398439Q162.48000000000002,190.9163923339844,161.1882,192.20819233398436Q159.8961,193.49989233398438,157.8144,193.49989233398438L66.16584,193.49989233398438Q64.08412,193.49989233398438,62.79208,192.20819233398436Q61.5,190.91629233398436,61.5000012517,188.83489233398439Q61.5,179.88099233398438,67.68695,173.69519233398438Q73.8739,167.50949233398438,82.8292,167.50939233398438L85.0501,167.50939233398438L66.21829,146.27729233398438L65.79874,145.85789233398438L65.78624,145.84329233398438Q61.5,140.84359233398436,61.5,134.6885923339844Q61.5,130.22219233398437,63.86168,126.25859233398438Q66.16154,122.39889233398438,70.02359,120.12819233398437L70.44188,119.70999233398437L107.588,98.42782233398438L107.6007,98.42148233398437Q112.4721,95.98622233398437,118.2698,96.70267233398438L143.11599999999999,96.70267233398438L150.482,93.02031033398437Q152.5205,91.68471833398438,155.1756,93.45454233398438L155.18970000000002,93.46393233398437L160.5965,97.62228233398437Q162.27800000000002,98.64566233398438,162.478,100.74766233398438Q162.661,102.66699233398438,161.562,104.14619233398437Q160.539,105.83029233398437,158.4346,106.03059233398437Q156.5016,106.21469233398437,155.015,105.09989233398437L151.9171,102.77689233398438L148.733,104.19179233398438L148.733,111.03909233398437L151.9171,112.45399233398437L155.015,110.13099233398438Q156.43040000000002,109.06959233398437,158.4579,109.35919233398437Q160.4855,109.64879233398437,161.547,111.06399233398437Q162.60899999999998,112.47919233398437,162.31900000000002,114.50649233398437Q162.029,116.53379233398438,160.6187,117.59149233398438L155.16500000000002,121.78599233398438L155.12189999999998,121.80749233398437Q153.35,122.69329233398437,152.3988,122.69329233398437Q151.031,122.69329233398437,150.0923,122.22399233398437L142.6994,118.52819233398438L129.3966,118.52819233398438Q127.421,122.92149233398438,123.5132,125.52629233398437L104.4159,138.12009233398436L130.5444,167.50939233398438L141.151,167.50939233398438Q150.1063,167.50949233398438,156.2933,173.69519233398438Q162.48000000000002,179.88099233398438,162.48000000000002,188.83489233398439ZM161.4803,188.83489233398439Q161.4801,180.29539233398438,155.5863,174.40239233398438Q149.6922,168.50939233398438,141.151,168.50939233398438L130.0953,168.50939233398438L102.90100000000001,137.92119233398438L122.96260000000001,124.69139233398437Q126.7528,122.16509233398438,128.6105,117.83119233398438L128.7404,117.52819233398438L142.93540000000002,117.52819233398438L150.5395,121.32949233398438Q151.2671,121.69329233398437,152.3988,121.69329233398437Q153.10410000000002,121.69329233398437,154.6319,120.93439233398438L160.0091,116.79879233398438Q161.098,115.98219233398437,161.32909999999998,114.36509233398438Q161.56,112.74789233398437,160.7471,111.66409233398437Q159.9341,110.58019233398437,158.31650000000002,110.34909233398437Q156.699,110.11809233398438,155.6149,110.93099233398438L152.04739999999998,113.60619233398438L147.733,111.68899233398437L147.733,103.54189233398438L152.04739999999998,101.62469233398437L155.6149,104.29979233398437Q156.792,105.18249233398437,158.3398,105.03509233398438Q159.9552,104.88129233398438,160.7184,103.60959233398438L160.73160000000001,103.58739233398438L160.7471,103.56679233398438Q161.63,102.38993233398438,161.48250000000002,100.84248233398438Q161.3287,99.22750233398438,160.0567,98.46446233398437L160.03199999999998,98.44961233398438L154.6071,94.27737233398437Q152.4981,92.87812233398438,151.00979999999998,93.87012233398437L150.9839,93.88739233398438L143.352,97.70267233398438L118.20779999999999,97.70267233398438L118.1769,97.69881233398438Q112.6691,97.01045233398438,108.0604,99.30966233398438L71.05466,120.51139233398438L70.63947,120.92659233398437L70.58359,120.95919233398438Q66.90512,123.10459233398437,64.72074,126.77049233398438Q62.499999,130.49749233398438,62.5,134.6885923339844Q62.5,140.46469233398437,66.53304,145.17789233398437L66.94655,145.59139233398437L87.2737,168.50939233398438L82.8292,168.50939233398438Q74.2881,168.50939233398438,68.394,174.40239233398438Q62.5,180.29529233398438,62.5,188.83489233398439Q62.5,190.50209233398436,63.49913,191.50099233398436Q64.49829,192.49989233398438,66.16584,192.49989233398438L157.8144,192.49989233398438Q159.482,192.49989233398438,160.4811,191.50099233398436Q161.4802,190.50209233398436,161.4803,188.83489233398439ZM86.7454,120.09399233398437L111.3163,105.93709233398437Q113.96629999999999,104.28499233398438,116.9645,105.10259233398438Q119.8916,105.90079233398437,121.57900000000001,108.59989233398437Q123.2577,111.28529233398437,122.6335,114.22719233398438Q122.0027,117.20039233398438,119.3424,118.86539233398437L98.13499999999999,132.8597923339844L91.7518,124.77579233398438L91.3275,124.77579233398438L91.1775,124.57589233398437Q89.4987,122.33779233398437,86.7715,120.97449233398437L85.9393,120.55849233398438L86.7454,120.09399233398437ZM140.4013,105.03289233398438L140.4013,110.19799233398437L129.9595,110.19799233398437L129.84550000000002,109.85609233398438Q129.6338,109.22119233398438,129.2142,107.75269233398437Q128.8006,106.30539233398437,128.5957,105.69099233398438L128.37630000000001,105.03289233398438L140.4013,105.03289233398438ZM111.8309,106.79469233398437L88.02289999999999,120.51209233398437Q90.2974,121.82359233398438,91.8243,123.77579233398437L92.2363,123.77579233398437L98.3507,131.51929233398437L118.8018,118.02399233398438L118.80709999999999,118.02069233398437Q121.112,116.58039233398438,121.6553,114.01959233398438Q122.1956,111.47289233398438,120.731,109.12999233398438Q119.25110000000001,106.76259233398437,116.7014,106.06729233398437Q114.1209,105.36369233398437,111.83850000000001,106.78989233398437L111.8309,106.79469233398437ZM139.4013,109.19799233398437L139.4013,106.03289233398438L129.75220000000002,106.03289233398438Q129.92759999999998,106.60989233398438,130.1757,107.47799233398437Q130.4903,108.57889233398437,130.6842,109.19799233398437L139.4013,109.19799233398437ZM78.6634,143.51879233398438Q75.1236,143.51879233398438,72.4777,140.87329233398438L72.0611,140.45679233398437Q69.83169,138.22779233398438,69.83169,134.6885923339844Q69.83169,131.04519233398437,72.4256,128.45179233398437Q75.0195,125.85839233398437,78.6634,125.85839233398437Q82.3073,125.85839233398437,84.9012,128.45179233398437Q87.49510000000001,131.04529233398438,87.49510000000001,134.6885923339844Q87.49510000000001,138.33189233398437,84.9012,140.92539233398438Q82.3073,143.51879233398438,78.6634,143.51879233398438ZM78.6634,142.51879233398438Q81.8931,142.51879233398438,84.19409999999999,140.21819233398438Q86.49510000000001,137.91769233398438,86.49510000000001,134.6885923339844Q86.49510000000001,131.45949233398437,84.19409999999999,129.15899233398437Q81.8931,126.85839233398437,78.6634,126.85839233398437Q75.4336,126.85839233398437,73.1326,129.15899233398437Q70.83169,131.45949233398437,70.83169,134.6885923339844Q70.83169,137.81349233398439,72.7681,139.74959233398437L73.18469999999999,140.16609233398438Q75.5378,142.51879233398438,78.6634,142.51879233398438ZM96.6215,167.92739233398436L81.0462,150.62459233398437L81.8913,150.44359233398438Q86.1235,149.53679233398438,89.3158,146.65649233398437Q92.49889999999999,143.78449233398436,94.0227,139.51849233398437L94.30539999999999,138.72719233398436L120.6077,168.09289233398437L96.7704,168.09289233398437L96.6215,167.92739233398436ZM82.9305,151.22329233398438L97.2157,167.09289233398437L118.36959999999999,167.09289233398437L94.66929999999999,140.63229233398437Q93.0608,144.62439233398436,89.98570000000001,147.39889233398438Q86.9114,150.17289233398438,82.9305,151.22329233398438ZM153.50920000000002,185.1697923339844L70.47111,185.1697923339844L70.69053,184.51169233398437Q71.9962,180.5954923339844,75.2995,178.22419233398438Q78.6215,175.83969233398437,82.8292,175.83959233398437L141.151,175.83959233398437Q145.3587,175.83959233398437,148.6808,178.22419233398438Q151.9841,180.5952923339844,153.28969999999998,184.51169233398437L153.50920000000002,185.1697923339844ZM148.0976,179.03659233398437Q150.8554,181.01619233398438,152.1017,184.1697923339844L71.8786,184.1697923339844Q73.1248,181.01619233398438,75.8826,179.03659233398437Q78.9433,176.83959233398437,82.8292,176.83959233398437L141.151,176.83959233398437Q145.0369,176.83959233398437,148.0976,179.03659233398437Z" fill-rule="evenodd" fill="#27343E" fill-opacity="1"/></g></g></svg>