<svg xmlns="http://www.w3.org/2000/svg" xmlns:xlink="http://www.w3.org/1999/xlink" fill="none" version="1.1" width="508" height="286" viewBox="0 0 508 286"><defs><clipPath id="master_svg0_276_04914"><rect x="0" y="0" width="508" height="286" rx="15"/></clipPath></defs><g clip-path="url(#master_svg0_276_04914)"><rect x="0" y="0" width="508" height="286" rx="15" fill="#27343E" fill-opacity="1"/><g><g><path d="M162.8012295150757,108.58700923614502Q168.60252951507567,111.93630923614502,171.95172951507567,117.73760923614502Q175.3017295150757,123.53890923614502,175.3017295150757,130.23760923614503L175.3017295150757,161.762409236145Q175.3017295150757,168.46110923614503,171.95172951507567,174.262409236145Q168.60252951507567,180.06370923614503,162.8012295150757,183.413009236145L135.50002951507568,199.175209236145Q129.69872951507568,202.52520923614503,123.00002951507568,202.52520923614503Q116.30122951507568,202.52520923614503,110.50002951507568,199.175209236145L83.19872951507568,183.413009236145Q77.39746951507568,180.06370923614503,74.04809951507568,174.262409236145Q70.69873023033168,168.46110923614503,70.69873046874969,161.762409236145L70.69872951507568,130.23760923614503Q70.69872903823868,123.53890923614502,74.04808951507569,117.73760923614502Q77.39745951507568,111.93630923614502,83.19872951507568,108.58700923614502L110.50002951507568,92.82457923614501Q116.30122951507568,89.47520971298202,123.00002951507568,89.47520923614502Q129.69872951507568,89.47520923614502,135.50002951507568,92.82457923614501L162.8012295150757,108.58700923614502ZM158.3012295150757,116.38120923614503C163.25172951507568,119.23930923614502,166.3012295150757,124.52130923614502,166.3012295150757,130.23760923614503L166.3012295150757,161.762409236145C166.3012295150757,167.47860923614502,163.25172951507568,172.76070923614503,158.3012295150757,175.618809236145L131.00002951507568,191.38120923614503C126.04962951507568,194.23920923614503,119.95042951507568,194.23920923614503,115.00002951507568,191.38120923614503L87.69872951507568,175.618809236145C82.74832951507568,172.76070923614503,79.69872951507568,167.47860923614502,79.69872951507568,161.762409236145L79.69872951507568,130.23760923614503C79.69872951507568,124.52130923614502,82.74832951507568,119.23930923614502,87.69872951507568,116.38120923614503L115.00002951507568,100.61880923614501C119.95042951507568,97.76067923614502,126.04962951507568,97.76067923614502,131.00002951507568,100.61880923614501L158.3012295150757,116.38120923614503Z" fill-rule="evenodd" fill="#55A4F1" fill-opacity="1"/></g><g><path d="M112,155.5C112,151.91015,114.91015,149,118.5,149C122.0899,149,125,151.91015,125,155.5L125,179L112,179L112,155.5Z" fill="#27343E" fill-opacity="1"/></g><g><path d="M112,155.5C112,151.91015,114.91015,149,118.5,149C122.0899,149,125,151.91015,125,155.5L125,179L112,179L112,155.5ZM122,155.5L122,176L115,176L115,155.5Q115,154.05025,116.02513,153.02513Q117.05025,152,118.5,152Q119.94975,152,120.97487,153.02513Q122,154.05025,122,155.5Z" fill-rule="evenodd" fill="#55A4F1" fill-opacity="1"/></g><g transform="matrix(0,-1,1,0,-16,246)"><path d="M115,137.5C115,133.91015,117.91015,131,121.5,131C125.0899,131,128,133.91015,128,137.5L128,152C128,152.5523,127.5523,153,127,153L115,153L115,137.5Z" fill="#27343E" fill-opacity="1"/></g><g transform="matrix(0,-1,1,0,-16,246)"><path d="M115,137.5C115,133.91015,117.91015,131,121.5,131C125.0899,131,128,133.91015,128,137.5L128,152C128,152.5523,127.5523,153,127,153L115,153L115,137.5ZM125,150L118,150L118,137.5Q118,136.05025,119.02513,135.02513Q120.05025,134,121.5,134Q122.94975,134,123.97487,135.02513Q125,136.05025,125,137.5L125,150Z" fill-rule="evenodd" fill="#55A4F1" fill-opacity="1"/></g><g transform="matrix(1,-5.400848479553133e-8,5.400848479553133e-8,1,-0.000006210975755038817,0.000007237136969706626)"><path d="M134,122C134,118.13401,137.13401,115,141,115C144.86599999999999,115,148,118.13401,148,122L148,134L134,134L134,122Z" fill="#27343E" fill-opacity="1"/></g><g transform="matrix(1,-5.400848479553133e-8,5.400848479553133e-8,1,-0.000006210975755038817,0.000007237136969706626)"><path d="M134,122C134,118.13401,137.13401,115,141,115C144.86599999999999,115,148,118.13401,148,122L148,134L134,134L134,122ZM145,122L145,131L137,131L137,122Q137,120.34314,138.17157,119.17157Q139.34314,118,141,118Q142.65685,118,143.82843,119.17157Q145,120.34314,145,122Z" fill-rule="evenodd" fill="#55A4F1" fill-opacity="1"/></g><g transform="matrix(-0.7071067690849304,0.7071067690849304,-0.7071067690849304,-0.7071067690849304,328.5217685776297,175.16791991423815)"><path d="M127.982421875,162.197136875C127.982421875,158.566366875,130.925741875,155.623046875,134.556511875,155.623046875C138.187321875,155.623046875,141.130621875,158.566366875,141.130621875,162.197136875L141.130621875,180.864146875C141.130621875,181.416346875,140.682921875,181.864146875,140.130621875,181.864146875L127.982421875,181.864146875L127.982421875,162.197136875Z" fill="#27343E" fill-opacity="1"/></g><g transform="matrix(-0.7071067690849304,0.7071067690849304,-0.7071067690849304,-0.7071067690849304,328.5217685776297,175.16791991423815)"><path d="M127.982421875,162.197136875C127.982421875,158.566366875,130.925741875,155.623046875,134.556511875,155.623046875C138.187321875,155.623046875,141.130621875,158.566366875,141.130621875,162.197136875L141.130621875,180.864146875C141.130621875,181.416346875,140.682921875,181.864146875,140.130621875,181.864146875L127.982421875,181.864146875L127.982421875,162.197136875ZM138.130621875,178.864146875L130.982421875,178.864146875L130.982421875,162.197136875Q130.982421875,160.716706875,132.029251875,159.669876875Q133.076081875,158.623046875,134.556511875,158.623046875Q136.036951875,158.623046875,137.083781875,159.669876875Q138.130621875,160.716706875,138.130621875,162.197136875L138.130621875,178.864146875Z" fill-rule="evenodd" fill="#55A4F1" fill-opacity="1"/></g><g><path d="M100.31319478894044,142.59196624145508C99.57833178894043,145.47716624145508,101.24152178894043,148.4303662414551,104.08973178894043,149.2976662414551C107.13333178894042,150.22446624145508,110.33376178894044,148.41886624145508,111.11446178894043,145.3345662414551L112.60956178894043,139.42806624145507C113.32196178894043,136.61396624145507,115.11776178894043,134.19546624145508,117.60566178894044,132.69976624145508L122.29136178894043,129.88286624145508C124.92316178894043,128.30072624145507,125.83936178894044,124.92492624145508,124.36866178894043,122.22935624145508C122.81126178894043,119.37492124145508,119.19296178894044,118.38759124145508,116.40156178894043,120.05534624145508L108.09317178894042,125.01932624145508C105.59709178894043,126.51064624145508,103.79300178894043,128.92958624145507,103.07533178894043,131.74726624145507L100.31319478894044,142.59196624145508Z" fill="#27343E" fill-opacity="1"/></g><g><path d="M98.8596024473877,142.22177041015624L101.6217454473877,131.37707041015625Q102.8950854473877,126.37767041015626,107.3238354473877,123.73165041015625L115.6323054473877,118.76767041015626Q118.2740054473877,117.18933641015624,121.24270544738769,117.99943841015624Q124.2115054473877,118.80954041015625,125.6854054473877,121.51092041015625Q127.07730544738769,124.06196041015625,126.3161054473877,126.86655041015625Q125.5549054473877,129.67117041015626,123.0643054473877,131.16847041015626L118.3785054473877,133.98537041015624Q115.0241054473877,136.00197041015625,114.06370544738769,139.79617041015626L112.5686054473877,145.70267041015626Q111.8255054473877,148.63857041015626,109.1877054473877,150.12667041015624Q106.5499854473877,151.61477041015624,103.65279544738769,150.73257041015626Q100.94157544738769,149.90707041015625,99.5508314473877,147.43757041015624Q98.1600854473877,144.96817041015626,98.8596024473877,142.22177041015624ZM101.76678544738769,142.96217041015626Q100.8071054473877,146.73007041015626,104.52667544738769,147.86267041015626Q106.1948654473877,148.37067041015627,107.7136554473877,147.51377041015624Q109.23240544738769,146.65697041015625,109.6603054473877,144.96647041015626L111.1554054473877,139.05997041015624Q112.4191054473877,134.06757041015624,116.8328054473877,131.41427041015626L121.5185054473877,128.59727041015626Q124.9942054473877,126.50779041015625,123.0519054473877,122.94778041015626Q122.1897054473877,121.36752041015625,120.4530054473877,120.89362041015625Q118.7163054473877,120.41972041015624,117.1709054473877,121.34302041015626L108.86250544738769,126.30701041015625Q105.4966654473877,128.31797041015625,104.52892544738769,132.11747041015624L101.76678544738769,142.96217041015626Z" fill-rule="evenodd" fill="#55A4F1" fill-opacity="1"/></g><g><path d="M107,176L130,176L130,180L107,180L107,176Z" fill="#27343E" fill-opacity="1"/></g><g><path d="M107,176L130,176L130,180L107,180L107,176Z" fill-rule="evenodd" fill="#55A4F1" fill-opacity="1"/></g></g></g></svg>