<svg xmlns="http://www.w3.org/2000/svg" xmlns:xlink="http://www.w3.org/1999/xlink" fill="none" version="1.1" width="508" height="286" viewBox="0 0 508 286"><defs><clipPath id="master_svg0_175_01596"><rect x="0" y="0" width="508" height="286" rx="15"/></clipPath></defs><g clip-path="url(#master_svg0_175_01596)"><rect x="0" y="0" width="508" height="286" rx="15" fill="#27343E" fill-opacity="1"/><g><path d="M88.847495,119.957109375C87.244055,119.957109375,86.17510300000001,118.352109375,86.17510300000001,116.747109375C86.17510300000001,115.142109375,87.244055,113.537109375,89.381975,113.537109375L101.140525,113.537109375C102.743925,113.537109375,104.347325,114.607109375,104.347325,116.747109375C104.347325,118.352109375,103.278425,119.957109375,101.140525,119.957109375L88.847495,119.957109375ZM88.847495,155.267109375C87.244055,155.267109375,85.640625,154.197109375,85.640625,152.057109375C85.640625,150.452109375,86.709585,148.847109375,88.847495,148.847109375L118.243825,148.847109375C119.84722500000001,148.847109375,121.450625,149.917109375,121.450625,152.057109375C121.450625,153.662109375,120.381725,155.267109375,118.243825,155.267109375L88.847495,155.267109375ZM133.209125,134.402109375C133.209125,136.007109375,132.140225,137.612109375,130.00232499999998,137.612109375L88.847495,137.612109375C87.244055,137.612109375,85.640625,136.542109375,85.640625,134.402109375C85.640625,132.797109375,86.709585,131.192109375,88.847495,131.192109375L130.536725,131.192109375C132.140225,131.727109375,133.209125,132.797109375,133.209125,134.402109375Z" fill="#55A4F1" fill-opacity="1"/></g><g><path d="M101.140525,120.707109375L88.847495,120.707109375Q87.322425,120.707109375,86.317775,119.414159375Q85.42510300000001,118.265309375,85.42510300000001,116.747109375Q85.42510300000001,115.158109375,86.416025,114.042229375Q87.530595,112.787109494209,89.381975,112.787109375L101.140525,112.787109375Q102.728625,112.7871094346046,103.843725,113.779294375Q105.097325,114.894689375,105.097325,116.747109375Q105.097325,118.336109375,104.106425,119.451989375Q102.991825,120.707109375,101.140525,120.707109375ZM101.140525,119.207109375Q103.597325,119.207109375,103.597325,116.747109375Q103.597325,114.287109375,101.140525,114.287109375L89.381975,114.287109375Q86.925105,114.287109375,86.925105,116.747109375Q86.925105,117.751049375,87.502245,118.493809375Q88.056495,119.207109375,88.847495,119.207109375L101.140525,119.207109375ZM130.774125,130.480709375Q133.959125,131.543409375,133.959125,134.402109375Q133.959125,135.991109375,132.968225,137.107009375Q131.853625,138.362109375,130.00232499999998,138.362109375L88.847495,138.362109375Q87.259345,138.362109375,86.144225,137.369909375Q84.890625178814,136.254509375,84.890625,134.402109375Q84.8906250596046,132.813109375,85.881544,131.697209375Q86.996125,130.442109375,88.847495,130.442109375L130.658625,130.442109375L130.774125,130.480709375ZM88.847495,131.942109375L130.411325,131.942109375Q132.459125,132.670809375,132.459125,134.402109375Q132.459125,136.862109375,130.00232499999998,136.862109375L88.847495,136.862109375Q87.830065,136.862109375,87.141315,136.249309375Q86.390625,135.581409375,86.390625,134.402109375Q86.390625,133.383009375,87.003145,132.693209375Q87.670155,131.942109375,88.847495,131.942109375ZM118.243825,156.017109375L88.847495,156.017109375Q87.259345,156.017109375,86.144225,155.024909375Q84.890625178814,153.909509375,84.890625,152.057109375Q84.8906250596046,150.46810937499998,85.881543,149.352209375Q86.996115,148.097109375,88.847495,148.097109375L118.243825,148.097109375Q119.831925,148.097109375,120.947025,149.089309375Q122.200625,150.204709375,122.200625,152.057109375Q122.200625,153.646109375,121.20972499999999,154.762009375Q120.095125,156.017109375,118.243825,156.017109375ZM118.243825,154.517109375Q120.700625,154.517109375,120.700625,152.057109375Q120.700625,149.597109375,118.243825,149.597109375L88.847495,149.597109375Q86.390625,149.597109375,86.390625,152.057109375Q86.390625,154.517109375,88.847495,154.517109375L118.243825,154.517109375Z" fill-rule="evenodd" fill="#55A4F1" fill-opacity="1"/></g><g><path d="M151.3786,138.15L151.3786,121.03L119.84440000000001,90L80.293,90C73.34478,90,68,95.35,68,101.77L68,184.695C68,191.65,73.34478,197,80.293,197L130.53390000000002,197C128.39600000000002,195.39499999999998,126.2581,193.255,124.65469999999999,191.115L80.293,191.115C77.08613,191.115,74.41374,188.44,74.41374,185.23000000000002L74.41374,101.77C74.41374,100.16499999999999,74.94821,98.56,76.01717,97.49C77.08613,96.42,78.6896,95.885,80.293,95.885L116.10300000000001,95.885L116.10300000000001,125.845L146.03379999999999,125.845L146.03379999999999,137.615C147.1028,137.615,149.2407,137.615,151.3786,138.15ZM121.4478,119.96000000000001L121.4478,101.235L140.15449999999998,119.425L121.4478,119.96000000000001ZM166.344,141.895L145.4993,163.29500000000002C144.9648,163.82999999999998,144.43040000000002,164.9,144.43040000000002,165.435L142.8269,171.32C142.8269,171.85500000000002,142.8269,172.39,143.3614,172.925C143.89589999999998,173.45999999999998,144.43040000000002,173.45999999999998,144.9648,173.45999999999998L151.3786,171.85500000000002C151.9131,171.85500000000002,152.4475,171.32,152.982,170.785L173.827,149.385C175.43,147.78,175.43,145.105,173.827,143.5L172.75799999999998,142.43C171.689,141.36,170.62,140.825,169.551,140.825C167.94740000000002,140.29,166.8784,140.825,166.344,141.895Z" fill="#55A4F1" fill-opacity="1"/></g><g><path d="M145.28379999999999,138.365L145.28379999999999,126.595L115.35300000000001,126.595L115.35300000000001,96.635L80.293,96.635Q77.9315,96.635,76.54776,98.02007Q75.16374,99.4054,75.16374,101.77L75.16374,185.23000000000002Q75.16374,187.3271,76.68138,188.8462Q78.1987,190.365,80.293,190.365L125.0299,190.365L125.25489999999999,190.66500000000002Q127.71029999999999,193.942,130.9842,196.4L132.7822,197.75L80.293,197.75Q74.77098,197.75,71.01033,193.986Q67.25,190.22199999999998,67.25,184.695L67.25,101.77Q67.25,96.59725,71.01855,92.93933Q74.81945,89.25,80.293,89.25L120.1515,89.25L152.1286,120.7158L152.1286,139.11079999999998L151.19650000000001,138.8776Q149.1482,138.365,146.03379999999999,138.365L145.28379999999999,138.365ZM146.78379999999999,125.095L146.78379999999999,136.8725Q148.9573,136.9167,150.6286,137.2221L150.6286,121.3442L119.5372,90.75L80.293,90.75Q75.42773,90.75,72.06329,94.01567Q68.75,97.2317,68.75,101.77L68.75,184.695Q68.75,189.601,72.07151,192.926Q75.39272,196.25,80.293,196.25L128.4118,196.25Q126.1325,194.272,124.28229999999999,191.865L80.293,191.865Q77.577,191.865,75.6202,189.906Q73.66374,187.94799999999998,73.66374,185.23000000000002L73.66374,101.77Q73.66374,98.78455,75.48658,96.95993Q77.30969999999999,95.135,80.293,95.135L116.85300000000001,95.135L116.85300000000001,125.095L146.78379999999999,125.095ZM140.176,120.1747L120.6978,120.73179999999999L120.6978,99.4596L141.94920000000002,120.124L140.176,120.1747ZM122.1978,103.0104L138.35989999999998,118.726L122.1978,119.1882L122.1978,103.0104ZM165.7288,141.45170000000002Q166.9219,139.211,169.675,140.0769Q171.524,140.1343,173.288,141.8999L174.357,142.9699Q175.779,144.3933,175.779,146.4425Q175.779,148.4917,174.364,149.9083L153.51260000000002,171.3151Q152.3106,172.51819999999998,151.4943,172.5992L145.0573,174.20999999999998L144.9648,174.20999999999998Q143.58499999999998,174.20999999999998,142.8308,173.45510000000002Q142.0769,172.7004,142.0769,171.32L142.0769,171.2197L143.6823,165.3275Q143.7303,164.00459999999998,144.96210000000002,162.7717L165.7288,141.45170000000002ZM169.313,141.53640000000001Q167.64,140.97820000000002,167.0149,142.2301L166.96269999999998,142.3346L146.03660000000002,163.8183Q145.18040000000002,164.6755,145.18040000000002,165.435L145.18040000000002,165.5353L143.57819999999998,171.41559999999998Q143.5971,172.09980000000002,143.892,172.3949Q144.1882,172.6914,144.8768,172.7089L151.2862,171.10500000000002L151.3786,171.10500000000002Q151.60219999999998,171.10500000000002,152.4514,170.25490000000002L173.289,148.86169999999998Q174.279,147.8708,174.279,146.4425Q174.279,145.01420000000002,173.296,144.0301L172.227,142.9601Q170.84300000000002,141.575,169.551,141.575L169.429,141.575L169.313,141.53640000000001Z" fill-rule="evenodd" fill="#55A4F1" fill-opacity="1"/></g><g><path d="M98.466730625,186.83625312499998C97.932250625,186.83625312499998,97.397770625,186.83625312499998,97.397770625,186.301253125C96.328818625,185.766253125,95.794340625,184.161253125,96.328818625,182.556253125C108.087340625,161.691213125,112.363140625,162.761210475,113.966640625,162.761210475C115.570040625,162.761210475,117.173440625,163.831213125,117.70794062499999,167.041213125C118.242440625,169.716213125,118.242440625,172.391213125,118.77694062500001,175.066253125L118.77694062500001,176.671253125L120.914840625,174.531253125C124.656140625,170.251213125,127.328540625,167.576213125,130.535440625,168.111213125C133.742240625,168.646213125,133.742240625,171.856213125,134.276740625,172.391213125C134.811240625,173.996253125,134.811240625,175.066253125,134.811240625,176.671253125L136.414640625,176.136253125C137.483640625,175.601253125,139.087040625,176.136253125,139.621540625,177.74125312500001C140.156040625,178.811253125,139.621540625,180.416253125,138.552540625,180.951253125C134.276740625,183.091253125,132.138840625,183.626253125,130.000940625,182.556253125C128.931940625,181.486253125,128.397540625,179.346253125,128.931940625,177.74125312500001C129.466440625,176.671253125,129.466440625,175.066253125,128.931940625,173.996253125C127.328540625,175.601253125,126.259540625,176.671253125,125.190640625,178.276253125L121.449240625,180.951253125C120.380340625,182.021253125,117.70794062499999,184.696253125,115.035540625,183.626253125C112.363140625,182.556253125,112.363140625,179.881253125,111.828640625,175.601253125L111.828640625,169.181213125C107.552840625,173.996253125,103.811510625,179.346253125,100.604640625,185.231253125C100.070160625,186.301253125,99.535690625,186.83625312499998,98.466730625,186.83625312499998Z" fill="#55A4F1" fill-opacity="1"/></g><g><path d="M98.46672926269531,187.58620161132814Q100.26113926269531,187.58620161132814,101.26940926269532,185.5787016113281Q105.53836926269531,177.7473016113281,111.07866926269531,171.19221161132813L111.07866926269531,175.64790161132814L111.08446926269531,175.69420161132814Q111.14206926269532,176.1557016113281,111.24296926269531,177.02520161132813Q111.62306926269531,180.30050161132812,112.06776926269531,181.49970161132813Q112.82806926269531,183.55020161132813,114.75676926269531,184.32250161132814Q117.87166926269532,185.56970161132813,121.93556926269531,181.52550161132814L125.73866926269531,178.8064016113281L125.81486926269531,178.69200161132812Q126.66596926269531,177.41410161132814,128.60866926269532,175.39620161132814Q128.76296926269532,176.40110161132813,128.26106926269532,177.40610161132813L128.23726926269532,177.4537016113281L128.22036926269533,177.50430161132812Q127.7589692626953,178.88980161132812,128.13436926269532,180.51780161132814Q128.5032692626953,182.11830161132812,129.47036926269533,183.0863016113281L129.5563692626953,183.17240161132813L129.66526926269532,183.22690161132812Q131.46086926269533,184.12560161132814,133.6222692626953,183.69290161132812Q135.5023692626953,183.31650161132814,138.8882692626953,181.62190161132813Q139.9677692626953,181.08160161132813,140.39996926269532,179.78380161132813Q140.82226926269533,178.51560161132812,140.3164692626953,177.45510161132813Q139.82286926269532,176.02910161132812,138.52336926269533,175.45100161132814Q137.2727692626953,174.8946016113281,136.13016926269532,175.44050161132813L135.54016926269531,175.63740161132813Q135.45126926269532,173.5444016113281,134.9883692626953,172.15430161132812L134.93246926269532,171.98635161132813L134.80736926269532,171.86115161132813Q134.7972692626953,171.8510816113281,134.6212692626953,171.31045161132812Q133.49256926269533,167.8441916113281,130.6588692626953,167.37144161132812Q128.1323692626953,166.94994161132811,125.47946926269532,168.91267161132814Q123.64586926269531,170.26929161132813,120.36656926269531,174.01880161132812L119.50486926269531,174.88140161132813Q119.24846926269531,173.57960161132812,118.98866926269531,170.97915161132812Q118.71896926269531,168.27926161132814,118.44576926269531,166.9060616113281Q117.62626926269532,162.01121765132814,113.96656926269532,162.01121861132813Q113.90756926269532,162.01121861132813,113.76386926269531,162.00735772132813Q111.04136926269531,161.93422511132812,108.09176926269531,164.59525161132814Q103.00229926269532,169.18680161132812,95.67543326269531,182.18800161132813L95.64002526269532,182.25080161132811L95.6172392626953,182.31930161132811Q95.1484672626953,183.72690161132812,95.54358326269531,185.0453016113281Q95.88868526269532,186.19670161132814,96.72353926269531,186.77220161132811Q97.01899926269532,187.58620161132814,98.46672926269531,187.58620161132814ZM99.93368926269531,184.89610161132813L99.93966926269532,184.88410161132813L99.9460792626953,184.8723016113281Q104.79731926269531,175.96970161132813,111.26786926269531,168.68321161132812L112.57866926269531,167.20713161132812L112.57866926269531,175.5547016113281Q112.63626926269531,176.01880161132812,112.73296926269532,176.85230161132813Q113.09226926269531,179.94830161132813,113.47416926269531,180.97820161132813Q114.00316926269531,182.40500161132812,115.31436926269531,182.93000161132812Q117.52716926269531,183.81600161132812,120.91866926269532,180.42110161132814L120.96256926269531,180.37720161132813L124.64466926269532,177.74460161132814Q125.77026926269531,176.09990161132814,128.4013692626953,173.46610161132813L129.1374692626953,172.72930161132814L129.6029692626953,173.66110161132812Q130.69296926269533,175.84330161132812,129.6279692626953,178.0256016113281Q128.89126926269532,180.30290161132814,130.4458692626953,181.93830161132811Q131.73896926269532,182.5401016113281,133.32786926269532,182.22210161132813Q135.0108692626953,181.88510161132814,138.2168692626953,180.28050161132813Q138.7408692626953,180.01830161132813,138.9767692626953,179.30990161132812Q139.2127692626953,178.60120161132812,138.9505692626953,178.07640161132812L138.9267692626953,178.02870161132813L138.9099692626953,177.97820161132813Q138.63106926269532,177.14060161132812,137.91366926269532,176.82150161132813Q137.2823692626953,176.54060161132813,136.7503692626953,176.80690161132813L136.7026692626953,176.83080161132813L134.0612692626953,177.71210161132814L134.0612692626953,176.67120161132812Q134.0612692626953,174.19970161132812,133.5964692626953,172.72480161132813Q133.40176926269532,172.4100016113281,133.1949692626953,171.77489161132812Q132.3480692626953,169.17398161132812,130.41196926269532,168.8509916113281Q128.5130692626953,168.5341916113281,126.37156926269532,170.11851161132813Q124.66376926269531,171.3820616113281,121.47946926269532,175.02480161132812L121.46306926269531,175.0436016113281L118.02686926269531,178.48310161132812L118.02686926269531,175.13950161132811Q117.7598692626953,173.7679016113281,117.4961692626953,171.12826161132813Q117.2325692626953,168.48970161132812,116.97246926269531,167.18816161132813L116.97006926269532,167.17632161132812L116.96816926269531,167.16440161132812Q116.35986926269531,163.51122161132812,113.96656926269532,163.51122161132812Q113.8874692626953,163.51122161132812,113.72356926269532,163.50682161132812Q108.02096926269532,163.35365161132813,97.01857926269531,182.85990161132813Q96.3515922626953,184.93890161132813,97.73344926269532,185.63050161132813L98.14777926269531,185.83790161132814L98.14777926269531,186.07980161132812Q98.26999926269531,186.08620161132814,98.46672926269531,186.08620161132814Q99.33919926269532,186.08620161132814,99.93368926269531,184.89610161132813Z" fill-rule="evenodd" fill="#55A4F1" fill-opacity="1"/></g></g></svg>