<svg xmlns="http://www.w3.org/2000/svg" xmlns:xlink="http://www.w3.org/1999/xlink" fill="none" version="1.1" width="508" height="286" viewBox="0 0 508 286"><defs><clipPath id="master_svg0_276_03823"><rect x="0" y="0" width="508" height="286" rx="15"/></clipPath></defs><g clip-path="url(#master_svg0_276_03823)"><rect x="0" y="0" width="508" height="286" rx="15" fill="#27343E" fill-opacity="1"/><g><path d="M67.95999908447266,170.00000091552735L77.13999908447266,170.00000091552735L80.19999908447265,163.82000091552734C81.15999908447266,161.84000091552736,82.05999908447265,159.86000091552734,83.01999908447266,158.00000091552735L83.31999908447266,158.00000091552735C84.39999908447265,159.86000091552734,85.53999908447265,161.84000091552736,86.55999908447265,163.82000091552734L90.27999908447265,170.00000091552735L99.75999908447265,170.00000091552735L89.25999908447265,153.50000091552735L99.09999908447266,136.40000091552736L89.97999908447265,136.40000091552736L87.15999908447266,142.34000091552736C86.37999908447266,144.26000091552734,85.47999908447265,146.18000091552733,84.69999908447265,148.04000091552734L84.45999908447266,148.04000091552734C83.43999908447266,146.18000091552733,82.41999908447266,144.26000091552734,81.45999908447266,142.34000091552736L78.09999908447266,136.40000091552736L68.61999908447265,136.40000091552736L78.45999908447266,152.54000091552734L67.95999908447266,170.00000091552735ZM100.47999908447267,170.00000091552735L109.47999908447267,170.00000091552735L112.59999908447266,158.60000091552735L126.93999908447265,158.60000091552735L130.05999908447265,170.00000091552735L139.41999908447264,170.00000091552735L125.19999908447267,125.54000091552734L114.69999908447267,125.54000091552734L100.47999908447267,170.00000091552735ZM114.51999908447266,151.70000091552734L115.83999908447265,146.84000091552736C117.15999908447266,142.22000091552735,118.41999908447266,137.18000091552733,119.61999908447265,132.32000091552734L119.85999908447266,132.32000091552734C121.17999908447266,137.06000091552735,122.37999908447266,142.22000091552735,123.75999908447265,146.84000091552736L125.07999908447266,151.70000091552734L114.51999908447266,151.70000091552734ZM143.91999908447264,170.00000091552735L152.73999908447266,170.00000091552735L152.73999908447266,149.96000091552736C154.65999908447264,145.10000091552735,157.77999908447265,143.36000091552734,160.35999908447266,143.36000091552734C161.79999908447266,143.36000091552734,162.75999908447267,143.54000091552734,163.95999908447266,143.90000091552736L165.39999908447265,136.28000091552735C164.43999908447267,135.86000091552734,163.35999908447266,135.56000091552735,161.49999908447268,135.56000091552735C158.01999908447266,135.56000091552735,154.41999908447264,137.96000091552733,151.95999908447266,142.34000091552736L151.77999908447265,142.34000091552736L151.11999908447265,136.40000091552736L143.91999908447264,136.40000091552736L143.91999908447264,170.00000091552735ZM170.07999908447266,170.00000091552735L178.89999908447265,170.00000091552735L178.89999908447265,146.90000091552736C181.23999908447266,144.32000091552734,183.39999908447265,143.12000091552733,185.31999908447267,143.12000091552733C188.55999908447265,143.12000091552733,190.05999908447265,144.92000091552734,190.05999908447265,150.14000091552734L190.05999908447265,170.00000091552735L198.81999908447267,170.00000091552735L198.81999908447267,146.90000091552736C201.21999908447265,144.32000091552734,203.37999908447264,143.12000091552733,205.29999908447266,143.12000091552733C208.47999908447267,143.12000091552733,209.97999908447267,144.92000091552734,209.97999908447267,150.14000091552734L209.97999908447267,170.00000091552735L218.73999908447266,170.00000091552735L218.73999908447266,149.06000091552735C218.73999908447266,140.60000091552735,215.49999908447265,135.56000091552735,208.35999908447266,135.56000091552735C204.03999908447267,135.56000091552735,200.73999908447266,138.20000091552734,197.61999908447265,141.44000091552735C196.05999908447265,137.72000091552735,193.23999908447266,135.56000091552735,188.43999908447267,135.56000091552735C184.05999908447265,135.56000091552735,180.93999908447267,137.96000091552733,178.11999908447265,140.90000091552736L177.93999908447267,140.90000091552736L177.27999908447265,136.40000091552736L170.07999908447266,136.40000091552736L170.07999908447266,170.00000091552735Z" fill="#55A4F1" fill-opacity="1"/></g></g></svg>