<?xml version="1.0" encoding="utf-8"?>
<!-- Generator: Adobe Illustrator 26.0.1, SVG Export Plug-In . SVG Version: 6.00 Build 0)  -->
<svg version="1.1" id="图层_1" xmlns="http://www.w3.org/2000/svg" xmlns:xlink="http://www.w3.org/1999/xlink" x="0px" y="0px"
	 viewBox="0 0 1468.3 830" style="enable-background:new 0 0 1468.3 830;" xml:space="preserve">
<style type="text/css">
	.st0{fill:none;stroke:#000000;stroke-width:0.709;stroke-linecap:round;stroke-linejoin:round;stroke-miterlimit:10;}
	.st1{fill:#231815;}
	.st2{font-family:'SourceHanSansCN-Medium-GBpc-EUC-H';}
	.st3{font-size:26px;}
</style>
<line class="st0" x1="980.9" y1="554.9" x2="980.9" y2="553.2"/>
<line class="st0" x1="980.9" y1="570.8" x2="980.9" y2="572.5"/>
<line class="st0" x1="862.3" y1="554.9" x2="862.3" y2="553.2"/>
<line class="st0" x1="862.3" y1="570.8" x2="862.3" y2="572.5"/>
<polyline class="st0" points="1105.6,465 1105.9,462.1 1106.7,459.3 1108.1,456.7 1110,454.5 1112.2,452.6 1114.8,451.3 
	1117.5,450.5 1120.4,450.1 "/>
<line class="st0" x1="1105.6" y1="465" x2="1105.6" y2="506.6"/>
<polyline class="st0" points="1135.2,506.6 1135,509.3 1134.2,511.9 1133,514.3 1131.3,516.5 1129.3,518.4 1127,519.7 1124.5,520.8 
	1121.8,521.3 1119.1,521.3 1116.3,520.8 1113.8,519.7 1111.4,518.4 1109.4,516.5 1107.8,514.3 1106.6,511.9 1105.8,509.3 
	1105.6,506.6 "/>
<line class="st0" x1="1135.2" y1="506.6" x2="1135.2" y2="465"/>
<polyline class="st0" points="1120.4,450.1 1123.3,450.5 1126.1,451.3 1128.6,452.6 1130.9,454.5 1132.8,456.7 1134.1,459.3 
	1135,462.1 1135.2,465 "/>
<polyline class="st0" points="722.8,450.1 720,450.5 717.1,451.3 714.6,452.6 712.3,454.5 710.4,456.7 709.1,459.3 708.2,462.1 
	708,465 "/>
<polyline class="st0" points="708,506.6 708.2,509.3 709,511.9 710.2,514.3 711.9,516.5 713.9,518.4 716.2,519.7 718.8,520.8 
	721.4,521.3 724.2,521.3 726.9,520.8 729.4,519.7 731.8,518.4 733.8,516.5 735.5,514.3 736.6,511.9 737.5,509.3 737.7,506.6 "/>
<line class="st0" x1="737.7" y1="506.6" x2="737.7" y2="465"/>
<polyline class="st0" points="737.7,465 737.3,462.1 736.5,459.3 735.1,456.7 733.4,454.5 731.1,452.6 728.6,451.3 725.7,450.5 
	722.8,450.1 "/>
<line class="st0" x1="708" y1="465" x2="708" y2="506.6"/>
<line class="st0" x1="736.2" y1="384.8" x2="1107" y2="384.8"/>
<line class="st0" x1="1109.2" y1="610.4" x2="734" y2="610.4"/>
<polyline class="st0" points="734,610.4 728.3,610.1 722.7,609.2 717.5,608 712,606.1 "/>
<polyline class="st0" points="1131.2,606.1 1125.9,608 1120.5,609.2 1114.9,610.1 1109.2,610.4 "/>
<polyline class="st0" points="691.7,404.9 694.1,402.3 696.4,400.1 698.7,398.2 700.7,396.7 704.4,394.1 707.9,392 711.5,390.3 
	715.5,388.6 719.6,387.2 723.4,386.3 729.8,385.2 736.2,384.8 "/>
<polyline class="st0" points="1123.3,387.1 1125.8,387.9 1128.8,389 1131.8,390.3 1133.9,391.3 1136,392.4 1138.1,393.6 
	1140.3,395.1 1142.5,396.7 1146.8,400.1 1151.5,404.9 "/>
<polyline class="st0" points="1144.8,406.7 1141.3,402.8 1137.3,399.3 1132.9,396.2 1128.2,393.5 1123.3,391.4 1118,389.7 
	1112.6,388.8 1107,388.5 "/>
<line class="st0" x1="1107" y1="388.5" x2="736.2" y2="388.5"/>
<polyline class="st0" points="698.4,406.7 702.1,402.8 706.1,399.3 710.3,396.1 715.1,393.5 720.1,391.3 725.3,389.7 730.6,388.8 
	736.2,388.5 "/>
<polyline class="st0" points="712,606.1 706.5,603.3 700.7,599.5 "/>
<line class="st0" x1="712" y1="606.1" x2="712" y2="606.1"/>
<line class="st0" x1="1131.2" y1="606.1" x2="1131.2" y2="606.1"/>
<polyline class="st0" points="1142.5,599.5 1136.8,603.3 1131.2,606.1 "/>
<polyline class="st0" points="715.5,603.6 719.9,605.2 724.5,606.4 729.2,607.1 734,607.3 "/>
<line class="st0" x1="734" y1="607.3" x2="1109.2" y2="607.3"/>
<polyline class="st0" points="1109.2,607.3 1114,607.1 1118.8,606.4 1123.4,605.2 1127.8,603.6 "/>
<line class="st0" x1="676.8" y1="444.2" x2="676.8" y2="552"/>
<line class="st0" x1="1166.4" y1="552" x2="1166.4" y2="444.2"/>
<polyline class="st0" points="676.8,552 677.2,558 678.1,564.1 679.7,570 681.8,575.6 684.5,581.2 687.8,586.3 691.6,591.1 
	695.8,595.4 "/>
<polyline class="st0" points="676.8,444.2 676.8,442.7 677,441.1 677.1,439.6 677.2,438.1 677.4,436.5 677.6,435.1 677.8,433.5 
	678.1,432 "/>
<polyline class="st0" points="678.1,432 679,428.4 680.2,424.7 681.6,421 683.2,417.4 686.9,411.1 691.7,404.9 "/>
<polyline class="st0" points="1166.4,444.2 1166.4,442.7 1166.3,441.1 1166.2,439.6 1166.1,438.1 1165.9,436.5 1165.6,435.1 
	1165.4,433.5 1165.1,432 "/>
<polyline class="st0" points="1151.5,404.9 1154.7,408.8 1157.5,413 1160,417.4 1163,424.6 1165.1,432 "/>
<polyline class="st0" points="700.7,599.5 698.3,597.6 695.8,595.4 "/>
<polyline class="st0" points="1147.4,595.4 1145,597.6 1142.5,599.5 "/>
<polyline class="st0" points="1147.4,595.4 1151.6,591.1 1155.5,586.3 1158.7,581.2 1161.5,575.6 1163.6,570 1165.1,564.1 
	1166.1,558 1166.4,552 "/>
<polyline class="st0" points="698.4,406.7 694.4,412.8 691.2,419.4 688.6,426.5 686.8,433.8 "/>
<polyline class="st0" points="1156.4,433.8 1154.7,426.5 1152,419.3 1148.8,412.8 1144.8,406.7 "/>
<polyline class="st0" points="738.3,507.1 738,510.1 737.1,513 735.7,515.7 733.8,518.1 731.4,520 728.8,521.3 725.8,522.3 
	722.8,522.6 "/>
<polyline class="st0" points="722.8,522.6 719.9,522.3 716.9,521.3 714.2,520 711.9,518.1 710,515.7 708.6,513 707.7,510.1 
	707.4,507.1 "/>
<line class="st0" x1="707.4" y1="507.1" x2="707.4" y2="464.4"/>
<polyline class="st0" points="707.4,464.4 707.6,461.5 708.5,458.8 709.7,456.2 711.4,454 713.5,452 716,450.6 718.6,449.5 
	721.4,449 724.3,449 727.1,449.5 729.7,450.6 732.1,452 734.2,454 736,456.2 737.2,458.8 738,461.5 738.3,464.4 "/>
<line class="st0" x1="738.3" y1="464.4" x2="738.3" y2="507.1"/>
<polyline class="st0" points="1135.8,507.1 1135.5,510.1 1134.7,513 1133.2,515.7 1131.3,518.1 1129,520 1126.3,521.3 1123.5,522.3 
	1120.4,522.6 "/>
<polyline class="st0" points="1120.4,522.6 1117.4,522.3 1114.5,521.3 1111.8,520 1109.5,518.1 1107.6,515.7 1106.2,513 
	1105.3,510.1 1104.9,507.1 "/>
<line class="st0" x1="1104.9" y1="507.1" x2="1104.9" y2="464.4"/>
<polyline class="st0" points="1104.9,464.4 1105.3,461.5 1106,458.8 1107.2,456.2 1109,454 1111.1,452 1113.5,450.6 1116.1,449.5 
	1119,449 1121.8,449 1124.6,449.5 1127.2,450.6 1129.7,452 1131.8,454 1133.5,456.2 1134.8,458.8 1135.6,461.5 1135.8,464.4 "/>
<line class="st0" x1="1135.8" y1="464.4" x2="1135.8" y2="507.1"/>
<polyline class="st0" points="862.3,572.5 860,572.3 857.8,571.4 855.9,570.1 854.4,568.4 853.2,566.3 852.7,564 852.7,561.7 
	853.2,559.5 854.4,557.4 855.9,555.6 857.8,554.4 860,553.5 862.3,553.2 "/>
<polyline class="st0" points="862.3,553.2 864.6,553.5 866.7,554.4 868.7,555.6 870.2,557.4 871.3,559.5 871.8,561.7 871.8,564 
	871.3,566.3 870.2,568.4 868.7,570.1 866.7,571.4 864.6,572.3 862.3,572.5 "/>
<polyline class="st0" points="980.9,572.5 978.6,572.3 976.5,571.4 974.5,570.1 973.1,568.4 971.9,566.3 971.4,564 971.4,561.7 
	971.9,559.5 973.1,557.4 974.5,555.6 976.5,554.4 978.6,553.5 980.9,553.2 "/>
<polyline class="st0" points="980.9,553.2 983.3,553.5 985.4,554.4 987.4,555.6 988.9,557.4 990,559.5 990.5,561.7 990.5,564 
	990,566.3 988.9,568.4 987.4,570.1 985.4,571.4 983.3,572.3 980.9,572.5 "/>
<path class="st0" d="M685.7,444.2V552c0,0-0.6,22.6,20.3,45.6l4.5,3.2l4.9,2.7"/>
<path class="st0" d="M1127.8,603.6l4.9-2.7l4.5-3.2c20.6-18.7,20.3-45.6,20.3-45.6V444.2"/>
<polyline class="st0" points="1157.5,444.2 1157.2,438.4 1156.4,433.8 "/>
<polyline class="st0" points="686.8,433.8 686,439.6 685.7,444.2 "/>
<line class="st0" x1="1128.9" y1="389" x2="1129.6" y2="389.3"/>
<polyline class="st0" points="1119.8,386.3 1121.4,386.6 1124.2,387.4 1126.9,388.3 1128.2,388.8 "/>
<polyline class="st0" points="679.7,426.1 679.3,427.4 678.1,432 "/>
<polyline class="st0" points="697.6,399.1 697.5,399.3 693.3,403.1 693,403.6 "/>
<line class="st0" x1="706.7" y1="392.8" x2="706.3" y2="392.9"/>
<polyline class="st0" points="700.3,599.2 702.1,600.4 706.9,603.6 708.6,604.5 "/>
<polyline class="st0" points="695.8,595.4 697.5,597 700.1,599 "/>
<polyline class="st0" points="1141.4,600.3 1145.7,597.1 1147.4,595.4 "/>
<polyline class="st0" points="1120.2,609.3 1120.4,609.3 1123.3,608.7 1126,608 1128.6,607.1 1130.1,606.6 "/>
<polyline class="st0" points="722.5,609.2 722.8,609.3 725.5,609.8 728.3,610.1 731.2,610.3 732.6,610.4 "/>
<polyline class="st0" points="712,606.1 714.6,607.1 717.4,608 720.1,608.7 722.2,609.1 "/>
<polyline class="st0" points="1157.6,413.1 1157,412 1153.6,407.4 1151.5,404.9 "/>
<polyline class="st0" points="1165.1,432 1164,427.4 1162.7,423.7 "/>
<line class="st0" x1="977.7" y1="561.3" x2="978.7" y2="559.9"/>
<line class="st0" x1="982.6" y1="559.6" x2="983.8" y2="560.7"/>
<line class="st0" x1="979.3" y1="566.2" x2="978.1" y2="565.1"/>
<line class="st0" x1="984.3" y1="564.4" x2="983.2" y2="565.8"/>
<polyline class="st0" points="987.1,567.9 985.6,569.4 983.7,570.3 981.7,570.8 979.7,570.7 977.7,570.1 975.9,569 974.5,567.6 
	973.5,565.7 973.1,563.7 973.1,561.6 973.7,559.6 974.8,557.8 "/>
<polyline class="st0" points="982.6,563.2 982.6,563.1 982.5,563 982.5,562.9 982.4,562.8 982.4,562.7 982.5,562.6 982.5,562.4 
	982.6,562.3 "/>
<line class="st0" x1="981.5" y1="564.4" x2="983.7" y2="566.3"/>
<line class="st0" x1="984.8" y1="565" x2="982.6" y2="563.2"/>
<line class="st0" x1="983.7" y1="566.3" x2="984.8" y2="565"/>
<polyline class="st0" points="980.7,564.5 980.8,564.4 980.9,564.4 981,564.3 981.1,564.3 981.2,564.3 981.3,564.3 981.4,564.4 
	981.5,564.4 "/>
<line class="st0" x1="978.9" y1="566.7" x2="980.7" y2="564.5"/>
<line class="st0" x1="977.6" y1="565.7" x2="978.9" y2="566.7"/>
<line class="st0" x1="979.3" y1="563.5" x2="977.6" y2="565.7"/>
<polyline class="st0" points="979.3,562.7 979.3,562.8 979.4,562.8 979.4,563 979.5,563.1 979.5,563.2 979.4,563.3 979.4,563.4 
	979.3,563.5 "/>
<line class="st0" x1="977" y1="560.9" x2="979.3" y2="562.7"/>
<line class="st0" x1="978.2" y1="559.5" x2="977" y2="560.9"/>
<line class="st0" x1="980.4" y1="561.3" x2="978.2" y2="559.5"/>
<polyline class="st0" points="981.2,561.2 981.1,561.3 981,561.4 980.9,561.4 980.8,561.4 980.7,561.4 980.6,561.4 980.5,561.4 
	980.4,561.3 "/>
<line class="st0" x1="983" y1="559" x2="981.2" y2="561.2"/>
<line class="st0" x1="984.4" y1="560.1" x2="983" y2="559"/>
<line class="st0" x1="982.6" y1="562.3" x2="984.4" y2="560.1"/>
<polyline class="st0" points="974.8,557.8 976.3,556.5 978.2,555.4 980.2,555 982.3,555 984.3,555.6 986,556.7 987.4,558.3 
	988.3,560 988.9,562.1 988.8,564.1 988.2,566.1 987.1,567.9 "/>
<line class="st0" x1="860.2" y1="559.8" x2="861.8" y2="559.2"/>
<line class="st0" x1="858.6" y1="565.3" x2="861.3" y2="564.2"/>
<line class="st0" x1="860.6" y1="562.7" x2="857.9" y2="563.6"/>
<polyline class="st0" points="861.3,564.2 861.4,564.2 861.5,564.1 861.6,564.2 861.7,564.2 861.8,564.3 861.9,564.3 861.9,564.4 
	862,564.5 "/>
<line class="st0" x1="859.9" y1="559.2" x2="861" y2="561.8"/>
<polyline class="st0" points="863.6,563.9 863.6,563.8 863.6,563.7 863.6,563.6 863.6,563.5 863.7,563.4 863.8,563.3 863.9,563.2 
	864,563.2 "/>
<line class="st0" x1="864.6" y1="566.6" x2="863.6" y2="563.9"/>
<line class="st0" x1="862" y1="564.5" x2="863.1" y2="567.2"/>
<polyline class="st0" points="861,561.8 861,561.9 861,562 861,562.2 861,562.3 860.9,562.4 860.8,562.6 860.6,562.7 "/>
<line class="st0" x1="861.5" y1="558.6" x2="859.9" y2="559.2"/>
<line class="st0" x1="862.5" y1="561.2" x2="861.5" y2="558.6"/>
<polyline class="st0" points="863.4,561.5 863.2,561.6 863.1,561.6 862.9,561.6 862.8,561.5 862.7,561.5 862.6,561.4 862.6,561.3 
	862.5,561.2 "/>
<line class="st0" x1="866" y1="560.6" x2="863.4" y2="561.5"/>
<line class="st0" x1="864" y1="563.2" x2="866.6" y2="562.1"/>
<polyline class="st0" points="859.4,555.4 861.4,555 863.5,555 865.5,555.6 867.2,556.7 868.7,558.2 869.6,560 870.2,562 
	870.2,564.1 869.5,566.1 868.5,567.9 867,569.2 865.1,570.3 "/>
<polyline class="st0" points="865.1,570.3 863.2,570.8 861.1,570.7 859.1,570.2 857.3,569 855.8,567.6 854.9,565.8 854.4,563.7 
	854.5,561.7 855,559.7 856,557.9 857.6,556.5 859.4,555.4 "/>
<line class="st0" x1="863.1" y1="567.2" x2="864.6" y2="566.6"/>
<line class="st0" x1="864.4" y1="565.9" x2="862.7" y2="566.5"/>
<line class="st0" x1="857.9" y1="563.6" x2="858.6" y2="565.3"/>
<line class="st0" x1="859.3" y1="565" x2="858.7" y2="563.4"/>
<line class="st0" x1="866.6" y1="562.1" x2="866" y2="560.6"/>
<line class="st0" x1="865.3" y1="560.8" x2="865.9" y2="562.3"/>
<polyline class="st0" points="794.1,522.9 796,522.6 797.7,521.8 799.3,520.7 800.5,519.1 801.2,517.3 801.5,515.4 801.2,513.5 
	800.5,511.7 799.3,510.2 797.7,509 796,508.2 794.1,508 "/>
<polyline class="st0" points="794.1,508 792.1,508.2 790.3,509 788.8,510.2 787.6,511.7 786.9,513.5 786.6,515.4 786.9,517.3 
	787.6,519.1 788.8,520.7 790.3,521.8 792.1,522.6 794.1,522.9 "/>
<line class="st0" x1="794.1" y1="508" x2="794.1" y2="506.4"/>
<line class="st0" x1="794.1" y1="522.9" x2="794.1" y2="524.3"/>
<polyline class="st0" points="1049.2,522.9 1051.1,522.6 1052.9,521.8 1054.5,520.7 1055.6,519.1 1056.4,517.3 1056.6,515.4 
	1056.4,513.5 1055.6,511.7 1054.5,510.2 1052.9,509 1051.1,508.2 1049.2,508 "/>
<polyline class="st0" points="1049.2,508 1047.3,508.2 1045.5,509 1043.9,510.2 1042.8,511.7 1042,513.5 1041.8,515.4 1042,517.3 
	1042.8,519.1 1043.9,520.7 1045.5,521.8 1047.3,522.6 1049.2,522.9 "/>
<line class="st0" x1="1049.2" y1="508" x2="1049.2" y2="506.4"/>
<line class="st0" x1="1049.2" y1="522.9" x2="1049.2" y2="524.3"/>
<polyline class="st0" points="1049.2,524.3 1047.1,524.1 1045.1,523.4 1043.3,522.1 1041.8,520.5 1040.8,518.6 1040.3,516.5 
	1040.3,514.3 1040.8,512.2 1041.8,510.3 1043.3,508.6 1045.1,507.5 1047.1,506.7 1049.2,506.4 "/>
<polyline class="st0" points="1049.2,506.4 1051.4,506.7 1053.3,507.5 1055.1,508.6 1056.6,510.3 1057.6,512.2 1058.2,514.3 
	1058.2,516.5 1057.6,518.6 1056.6,520.5 1055.1,522.1 1053.3,523.4 1051.4,524.1 1049.2,524.3 "/>
<polyline class="st0" points="794.1,524.3 791.9,524.1 789.9,523.4 788.1,522.1 786.6,520.5 785.6,518.6 785.2,516.5 785.2,514.3 
	785.6,512.2 786.6,510.3 788.1,508.6 789.9,507.5 791.9,506.7 794.1,506.4 "/>
<polyline class="st0" points="794.1,506.4 796.2,506.7 798.2,507.5 799.9,508.6 801.4,510.3 802.5,512.2 803,514.3 803,516.5 
	802.5,518.6 801.4,520.5 799.9,522.1 798.2,523.4 796.2,524.1 794.1,524.3 "/>
<polyline class="st0" points="1049.2,533.2 1052.3,532.9 1055.3,532.1 1058,530.8 1060.7,529.1 1062.9,526.9 1064.6,524.3 
	1065.9,521.5 1066.7,518.5 1067.1,515.4 1066.7,512.3 1065.9,509.3 1064.6,506.6 1062.9,503.9 1060.7,501.7 1058,500 1055.3,498.7 
	1052.3,497.9 1049.2,497.7 "/>
<line class="st0" x1="1049.2" y1="497.7" x2="794.1" y2="497.7"/>
<polyline class="st0" points="794.1,533.2 790.9,532.9 787.9,532.1 785.2,530.8 782.6,529.1 780.4,526.9 778.6,524.3 777.3,521.5 
	776.5,518.5 776.3,515.4 776.5,512.3 777.3,509.3 778.6,506.6 780.4,503.9 782.6,501.7 785.2,500 787.9,498.7 790.9,497.9 
	794.1,497.7 "/>
<line class="st0" x1="794.1" y1="533.2" x2="1049.2" y2="533.2"/>
<polyline class="st0" points="1123.4,387.1 1115.3,385.5 1107,384.9 "/>
<polyline class="st0" points="1151.1,404.6 1144.8,398.4 1137.5,393.3 "/>
<line class="st0" x1="1144.1" y1="214.6" x2="1145.6" y2="214.6"/>
<line class="st0" x1="1144.1" y1="101.9" x2="1145.6" y2="101.9"/>
<line class="st0" x1="699" y1="101.9" x2="697.6" y2="101.9"/>
<line class="st0" x1="699" y1="214.6" x2="697.6" y2="214.6"/>
<line class="st0" x1="1129.2" y1="389.6" x2="1129.6" y2="389.7"/>
<line class="st0" x1="1129.2" y1="345.2" x2="1129.2" y2="389.7"/>
<line class="st0" x1="1114.5" y1="385.7" x2="1114.5" y2="345.2"/>
<polyline class="st0" points="1129.2,336.3 1129.2,336.4 1129.2,336.9 1129.2,337.8 1129.2,338.9 1129.2,340.2 1129.2,341.8 
	1129.2,343.4 1129.2,345.2 "/>
<polyline class="st0" points="1114.5,345.2 1114.5,343.4 1114.5,341.8 1114.5,340.2 1114.5,338.9 1114.5,337.8 1114.5,336.9 
	1114.5,336.4 1114.5,336.3 "/>
<line class="st0" x1="1129.2" y1="336.3" x2="1114.5" y2="336.3"/>
<line class="st0" x1="1114.5" y1="345.2" x2="1129.2" y2="345.2"/>
<line class="st0" x1="713.9" y1="389.7" x2="713.9" y2="345.2"/>
<line class="st0" x1="728.8" y1="345.2" x2="728.8" y2="385.7"/>
<polyline class="st0" points="713.9,345.2 713.9,343.4 713.9,341.8 713.9,340.2 713.9,338.9 713.9,337.8 713.9,336.9 713.9,336.4 
	713.9,336.3 "/>
<polyline class="st0" points="728.8,336.3 728.8,336.4 728.8,336.9 728.8,337.8 728.8,338.9 728.8,340.2 728.8,341.8 728.8,343.4 
	728.8,345.2 "/>
<line class="st0" x1="713.9" y1="345.2" x2="728.8" y2="345.2"/>
<line class="st0" x1="728.8" y1="336.3" x2="713.9" y2="336.3"/>
<polyline class="st0" points="1184.2,94.4 1184.2,94.6 1184.2,95.1 1184.2,95.7 1184.2,96.6 1184.2,97.8 1184.2,99 1184.2,100.4 
	1184.2,101.9 "/>
<line class="st0" x1="1182.7" y1="93" x2="1184.2" y2="94.4"/>
<line class="st0" x1="1184.2" y1="101.9" x2="1184.2" y2="318.5"/>
<line class="st0" x1="1182.7" y1="101.9" x2="1184.2" y2="101.9"/>
<line class="st0" x1="1157.5" y1="318.5" x2="1157.5" y2="101.9"/>
<polyline class="st0" points="1157.5,101.9 1157.5,100.4 1157.5,99 1157.5,97.8 1157.5,96.6 1157.5,95.7 1157.5,95.1 1157.5,94.6 
	1157.5,94.4 "/>
<line class="st0" x1="1157.5" y1="101.9" x2="1158.9" y2="101.9"/>
<line class="st0" x1="1157.5" y1="94.4" x2="1158.9" y2="93"/>
<polyline class="st0" points="1182.7,101.9 1182.7,100.2 1182.7,98.5 1182.7,96.9 1182.7,95.6 1182.7,94.5 1182.7,93.7 1182.7,93.2 
	1182.7,93 "/>
<line class="st0" x1="1158.9" y1="93" x2="1182.7" y2="93"/>
<polyline class="st0" points="1158.9,93 1158.9,93.2 1158.9,93.7 1158.9,94.5 1158.9,95.6 1158.9,96.9 1158.9,98.5 1158.9,100.2 
	1158.9,101.9 "/>
<line class="st0" x1="1182.7" y1="318.5" x2="1182.7" y2="101.9"/>
<line class="st0" x1="1182.7" y1="101.9" x2="1158.9" y2="101.9"/>
<line class="st0" x1="1158.9" y1="101.9" x2="1158.9" y2="318.5"/>
<polyline class="st0" points="1157.5,336.3 1157.5,335.2 1157.5,333.3 1157.5,330.9 1157.5,328.1 1157.5,325.1 1157.5,321.9 
	1157.5,318.5 "/>
<line class="st0" x1="1157.5" y1="318.5" x2="1158.9" y2="318.5"/>
<polyline class="st0" points="1184.2,318.5 1184.2,321.9 1184.2,325.1 1184.2,328.1 1184.2,330.9 1184.2,333.3 1184.2,335.2 
	1184.2,336.6 1184.2,337.5 1184.2,337.8 "/>
<line class="st0" x1="1182.7" y1="318.5" x2="1184.2" y2="318.5"/>
<polyline class="st0" points="1182.7,336.3 1182.7,336 1182.7,335.2 1182.7,333.9 1182.7,332.1 1182.7,329.9 1182.7,327.4 
	1182.7,324.6 1182.7,321.6 1182.7,318.5 "/>
<line class="st0" x1="1158.9" y1="318.5" x2="1182.7" y2="318.5"/>
<polyline class="st0" points="1158.9,318.5 1158.9,321.6 1158.9,324.6 1158.9,327.4 1158.9,329.9 1158.9,332.1 1158.9,333.9 
	1158.9,335.2 1158.9,336 1158.9,336.3 "/>
<line class="st0" x1="1182.7" y1="383.7" x2="1130.8" y2="383.7"/>
<line class="st0" x1="1130.8" y1="383.7" x2="1129.2" y2="382.3"/>
<polyline class="st0" points="1130.8,374.8 1130.8,376.6 1130.8,378.3 1130.8,379.7 1130.8,381.1 1130.8,382.3 1130.8,383.1 
	1130.8,383.6 1130.8,383.7 "/>
<polyline class="st0" points="1182.7,383.7 1182.7,383.6 1182.7,383.1 1182.7,382.3 1182.7,381.1 1182.7,379.7 1182.7,378.3 
	1182.7,376.6 1182.7,374.8 "/>
<line class="st0" x1="1184.2" y1="382.3" x2="1182.7" y2="383.7"/>
<polyline class="st0" points="1184.2,374.8 1184.2,376.3 1184.2,377.7 1184.2,379 1184.2,380.1 1184.2,381 1184.2,381.7 
	1184.2,382.2 1184.2,382.3 "/>
<line class="st0" x1="1184.2" y1="374.8" x2="1182.7" y2="374.8"/>
<line class="st0" x1="1184.2" y1="345.2" x2="1184.2" y2="374.8"/>
<line class="st0" x1="1182.7" y1="374.8" x2="1182.7" y2="345.2"/>
<line class="st0" x1="1130.8" y1="374.8" x2="1129.2" y2="374.8"/>
<line class="st0" x1="1130.8" y1="345.2" x2="1130.8" y2="374.8"/>
<line class="st0" x1="1130.8" y1="336.3" x2="1182.7" y2="336.3"/>
<line class="st0" x1="1130.8" y1="336.3" x2="1129.2" y2="337.8"/>
<line class="st0" x1="1130.8" y1="345.2" x2="1129.2" y2="345.2"/>
<polyline class="st0" points="1130.8,336.3 1130.8,336.4 1130.8,336.9 1130.8,337.8 1130.8,338.9 1130.8,340.2 1130.8,341.8 
	1130.8,343.4 1130.8,345.2 "/>
<line class="st0" x1="1182.7" y1="345.2" x2="1184.2" y2="345.2"/>
<polyline class="st0" points="1184.2,337.8 1184.2,337.9 1184.2,338.3 1184.2,339 1184.2,340 1184.2,341 1184.2,342.4 1184.2,343.7 
	1184.2,345.2 "/>
<line class="st0" x1="1182.7" y1="336.3" x2="1184.2" y2="337.8"/>
<polyline class="st0" points="1182.7,345.2 1182.7,343.4 1182.7,341.8 1182.7,340.2 1182.7,338.9 1182.7,337.8 1182.7,336.9 
	1182.7,336.4 1182.7,336.3 "/>
<line class="st0" x1="1157.5" y1="223.5" x2="1151.5" y2="223.5"/>
<line class="st0" x1="1151.5" y1="93" x2="1158.9" y2="93"/>
<line class="st0" x1="1153" y1="222" x2="1157.5" y2="222"/>
<line class="st0" x1="1157.5" y1="94.4" x2="1153" y2="94.4"/>
<line class="st0" x1="1145.6" y1="222" x2="1147.1" y2="223.5"/>
<polyline class="st0" points="1145.6,222 1145.6,221.9 1145.6,221.5 1145.6,220.8 1145.6,219.9 1145.6,218.8 1145.6,217.5 
	1145.6,216 1145.6,214.6 "/>
<line class="st0" x1="1153" y1="222" x2="1151.5" y2="223.5"/>
<polyline class="st0" points="1153,214.6 1153,216 1153,217.5 1153,218.8 1153,219.9 1153,220.8 1153,221.5 1153,221.9 1153,222 "/>
<line class="st0" x1="1151.5" y1="223.5" x2="1147.1" y2="223.5"/>
<polyline class="st0" points="1151.5,223.5 1151.5,223.4 1151.5,222.9 1151.5,222 1151.5,221 1151.5,219.6 1151.5,218 1151.5,216.4 
	1151.5,214.6 "/>
<polyline class="st0" points="1147.1,214.6 1147.1,216.4 1147.1,218 1147.1,219.6 1147.1,221 1147.1,222 1147.1,222.9 1147.1,223.4 
	1147.1,223.5 "/>
<line class="st0" x1="1147.1" y1="214.6" x2="1151.5" y2="214.6"/>
<line class="st0" x1="1151.5" y1="101.9" x2="1147.1" y2="101.9"/>
<line class="st0" x1="1147.1" y1="93" x2="1151.5" y2="93"/>
<line class="st0" x1="1151.5" y1="214.6" x2="1151.5" y2="101.9"/>
<line class="st0" x1="1153" y1="214.6" x2="1151.5" y2="214.6"/>
<line class="st0" x1="1153" y1="101.9" x2="1153" y2="214.6"/>
<line class="st0" x1="1145.6" y1="214.6" x2="1147.1" y2="214.6"/>
<line class="st0" x1="1147.1" y1="101.9" x2="1147.1" y2="214.6"/>
<line class="st0" x1="1145.6" y1="214.6" x2="1145.6" y2="101.9"/>
<line class="st0" x1="1147.1" y1="93" x2="1145.6" y2="94.4"/>
<polyline class="st0" points="1145.6,101.9 1145.6,100.4 1145.6,99 1145.6,97.8 1145.6,96.6 1145.6,95.7 1145.6,95.1 1145.6,94.6 
	1145.6,94.4 "/>
<line class="st0" x1="1147.1" y1="101.9" x2="1145.6" y2="101.9"/>
<polyline class="st0" points="1147.1,93 1147.1,93.2 1147.1,93.7 1147.1,94.5 1147.1,95.6 1147.1,96.9 1147.1,98.5 1147.1,100.2 
	1147.1,101.9 "/>
<line class="st0" x1="1153" y1="94.4" x2="1151.5" y2="93"/>
<polyline class="st0" points="1151.5,101.9 1151.5,100.2 1151.5,98.5 1151.5,96.9 1151.5,95.6 1151.5,94.5 1151.5,93.7 1151.5,93.2 
	1151.5,93 "/>
<line class="st0" x1="1153" y1="101.9" x2="1151.5" y2="101.9"/>
<polyline class="st0" points="1153,94.4 1153,94.6 1153,95.1 1153,95.7 1153,96.6 1153,97.8 1153,99 1153,100.4 1153,101.9 "/>
<line class="st0" x1="685.7" y1="318.5" x2="685.7" y2="101.9"/>
<line class="st0" x1="659.1" y1="101.9" x2="659.1" y2="318.5"/>
<line class="st0" x1="684.3" y1="93" x2="660.5" y2="93"/>
<polyline class="st0" points="659.1,94.4 659.1,94.6 659.1,95.1 659.1,95.7 659.1,96.6 659.1,97.8 659.1,99 659.1,100.4 
	659.1,101.9 "/>
<line class="st0" x1="660.5" y1="101.9" x2="659.1" y2="101.9"/>
<polyline class="st0" points="660.5,101.9 660.5,100.2 660.5,98.5 660.5,96.9 660.5,95.6 660.5,94.5 660.5,93.7 660.5,93.2 
	660.5,93 "/>
<line class="st0" x1="660.5" y1="93" x2="659.1" y2="94.4"/>
<polyline class="st0" points="685.7,101.9 685.7,100.4 685.7,99 685.7,97.8 685.7,96.6 685.7,95.7 685.7,95.1 685.7,94.6 
	685.7,94.4 "/>
<line class="st0" x1="685.7" y1="101.9" x2="684.3" y2="101.9"/>
<line class="st0" x1="685.7" y1="94.4" x2="684.3" y2="93"/>
<polyline class="st0" points="684.3,93 684.3,93.2 684.3,93.7 684.3,94.5 684.3,95.6 684.3,96.9 684.3,98.5 684.3,100.2 
	684.3,101.9 "/>
<line class="st0" x1="684.3" y1="101.9" x2="684.3" y2="318.5"/>
<line class="st0" x1="660.5" y1="101.9" x2="684.3" y2="101.9"/>
<line class="st0" x1="660.5" y1="318.5" x2="660.5" y2="101.9"/>
<polyline class="st0" points="659.1,318.5 659.1,321.9 659.1,325.1 659.1,328.1 659.1,330.9 659.1,333.3 659.1,335.2 659.1,336.6 
	659.1,337.5 659.1,337.8 "/>
<line class="st0" x1="660.5" y1="318.5" x2="659.1" y2="318.5"/>
<line class="st0" x1="684.3" y1="318.5" x2="660.5" y2="318.5"/>
<polyline class="st0" points="660.5,336.3 660.5,336 660.5,335.2 660.5,333.9 660.5,332.1 660.5,329.9 660.5,327.4 660.5,324.6 
	660.5,321.6 660.5,318.5 "/>
<polyline class="st0" points="685.7,336.3 685.7,335.2 685.7,333.3 685.7,330.9 685.7,328.1 685.7,325.1 685.7,321.9 685.7,318.5 
	"/>
<line class="st0" x1="685.7" y1="318.5" x2="684.3" y2="318.5"/>
<polyline class="st0" points="684.3,318.5 684.3,321.6 684.3,324.6 684.3,327.4 684.3,329.9 684.3,332.1 684.3,333.9 684.3,335.2 
	684.3,336 684.3,336.3 "/>
<line class="st0" x1="712.4" y1="383.7" x2="713.9" y2="382.3"/>
<line class="st0" x1="660.5" y1="383.7" x2="712.4" y2="383.7"/>
<polyline class="st0" points="712.4,374.8 712.4,376.6 712.4,378.3 712.4,379.7 712.4,381.1 712.4,382.3 712.4,383.1 712.4,383.6 
	712.4,383.7 "/>
<polyline class="st0" points="659.1,374.8 659.1,376.3 659.1,377.7 659.1,379 659.1,380.1 659.1,381 659.1,381.7 659.1,382.2 
	659.1,382.3 "/>
<line class="st0" x1="659.1" y1="382.3" x2="660.5" y2="383.7"/>
<polyline class="st0" points="660.5,383.7 660.5,383.6 660.5,383.1 660.5,382.3 660.5,381.1 660.5,379.7 660.5,378.3 660.5,376.6 
	660.5,374.8 "/>
<line class="st0" x1="659.1" y1="374.8" x2="660.5" y2="374.8"/>
<line class="st0" x1="660.5" y1="374.8" x2="660.5" y2="345.2"/>
<line class="st0" x1="659.1" y1="345.2" x2="659.1" y2="374.8"/>
<line class="st0" x1="712.4" y1="345.2" x2="712.4" y2="374.8"/>
<line class="st0" x1="712.4" y1="374.8" x2="713.9" y2="374.8"/>
<line class="st0" x1="712.4" y1="336.3" x2="660.5" y2="336.3"/>
<line class="st0" x1="660.5" y1="345.2" x2="659.1" y2="345.2"/>
<polyline class="st0" points="660.5,345.2 660.5,343.4 660.5,341.8 660.5,340.2 660.5,338.9 660.5,337.8 660.5,336.9 660.5,336.4 
	660.5,336.3 "/>
<line class="st0" x1="660.5" y1="336.3" x2="659.1" y2="337.8"/>
<polyline class="st0" points="659.1,337.8 659.1,337.9 659.1,338.3 659.1,339 659.1,340 659.1,341 659.1,342.4 659.1,343.7 
	659.1,345.2 "/>
<line class="st0" x1="712.4" y1="336.3" x2="713.9" y2="337.8"/>
<polyline class="st0" points="712.4,336.3 712.4,336.4 712.4,336.9 712.4,337.8 712.4,338.9 712.4,340.2 712.4,341.8 712.4,343.4 
	712.4,345.2 "/>
<line class="st0" x1="712.4" y1="345.2" x2="713.9" y2="345.2"/>
<line class="st0" x1="691.6" y1="223.5" x2="685.7" y2="223.5"/>
<line class="st0" x1="684.3" y1="93" x2="691.6" y2="93"/>
<line class="st0" x1="685.7" y1="222" x2="690.1" y2="222"/>
<line class="st0" x1="690.1" y1="94.4" x2="685.7" y2="94.4"/>
<line class="st0" x1="691.6" y1="223.5" x2="690.1" y2="222"/>
<polyline class="st0" points="690.1,222 690.1,221.9 690.1,221.5 690.1,220.8 690.1,219.9 690.1,218.8 690.1,217.5 690.1,216 
	690.1,214.6 "/>
<line class="st0" x1="696.1" y1="223.5" x2="697.6" y2="222"/>
<polyline class="st0" points="697.6,214.6 697.6,216 697.6,217.5 697.6,218.8 697.6,219.9 697.6,220.8 697.6,221.5 697.6,221.9 
	697.6,222 "/>
<polyline class="st0" points="691.6,214.6 691.6,216.4 691.6,218 691.6,219.6 691.6,221 691.6,222 691.6,222.9 691.6,223.4 
	691.6,223.5 "/>
<line class="st0" x1="696.1" y1="223.5" x2="691.6" y2="223.5"/>
<polyline class="st0" points="696.1,223.5 696.1,223.4 696.1,222.9 696.1,222 696.1,221 696.1,219.6 696.1,218 696.1,216.4 
	696.1,214.6 "/>
<line class="st0" x1="691.6" y1="214.6" x2="696.1" y2="214.6"/>
<line class="st0" x1="690.1" y1="94.4" x2="691.6" y2="93"/>
<polyline class="st0" points="690.1,101.9 690.1,100.4 690.1,99 690.1,97.8 690.1,96.6 690.1,95.7 690.1,95.1 690.1,94.6 
	690.1,94.4 "/>
<line class="st0" x1="691.6" y1="93" x2="696.1" y2="93"/>
<polyline class="st0" points="691.6,93 691.6,93.2 691.6,93.7 691.6,94.5 691.6,95.6 691.6,96.9 691.6,98.5 691.6,100.2 
	691.6,101.9 "/>
<line class="st0" x1="696.1" y1="101.9" x2="691.6" y2="101.9"/>
<line class="st0" x1="696.1" y1="214.6" x2="696.1" y2="101.9"/>
<line class="st0" x1="696.1" y1="214.6" x2="697.6" y2="214.6"/>
<line class="st0" x1="697.6" y1="101.9" x2="697.6" y2="214.6"/>
<line class="st0" x1="697.6" y1="94.4" x2="696.1" y2="93"/>
<polyline class="st0" points="696.1,101.9 696.1,100.2 696.1,98.5 696.1,96.9 696.1,95.6 696.1,94.5 696.1,93.7 696.1,93.2 
	696.1,93 "/>
<line class="st0" x1="697.6" y1="101.9" x2="696.1" y2="101.9"/>
<polyline class="st0" points="697.6,94.4 697.6,94.6 697.6,95.1 697.6,95.7 697.6,96.6 697.6,97.8 697.6,99 697.6,100.4 
	697.6,101.9 "/>
<line class="st0" x1="690.1" y1="214.6" x2="691.6" y2="214.6"/>
<line class="st0" x1="691.6" y1="101.9" x2="691.6" y2="214.6"/>
<line class="st0" x1="690.1" y1="101.9" x2="691.6" y2="101.9"/>
<line class="st0" x1="690.1" y1="214.6" x2="690.1" y2="101.9"/>
<polyline class="st0" points="1144.1,220.2 1144.1,220.1 1144.1,219.8 1144.1,219.3 1144.1,218.7 1144.1,217.7 1144.1,216.8 
	1144.1,215.7 1144.1,214.6 "/>
<line class="st0" x1="1144.1" y1="220.2" x2="1145.6" y2="220.2"/>
<line class="st0" x1="1144.1" y1="214.6" x2="1144.1" y2="101.9"/>
<polyline class="st0" points="1144.1,101.9 1144.1,100.8 1144.1,99.8 1144.1,98.7 1144.1,97.9 1144.1,97.1 1144.1,96.7 1144.1,96.3 
	1144.1,96.2 "/>
<line class="st0" x1="1144.1" y1="96.2" x2="1145.6" y2="96.2"/>
<polyline class="st0" points="699,96.2 699,96.3 699,96.7 699,97.1 699,97.9 699,98.7 699,99.8 699,100.8 699,101.9 "/>
<line class="st0" x1="699" y1="96.2" x2="697.6" y2="96.2"/>
<line class="st0" x1="699" y1="101.9" x2="699" y2="214.6"/>
<polyline class="st0" points="699,214.6 699,215.7 699,216.8 699,217.7 699,218.7 699,219.3 699,219.8 699,220.1 699,220.2 "/>
<line class="st0" x1="699" y1="220.2" x2="697.6" y2="220.2"/>
<polyline class="st0" points="164.4,217.6 164.9,215 166,213.3 168.1,211.7 170.8,211.2 173,211.7 175.1,213.3 176.8,215 
	177.3,217.6 176.8,220.3 175.1,222 173,223.6 170.8,224.1 168.1,223.6 166,222 164.9,220.3 164.4,217.6 "/>
<polyline class="st0" points="291.6,271.6 292.1,268.3 293.7,265.6 296.4,263.5 299.7,262.4 302.9,262.4 305.6,263.5 308.3,265.6 
	309.9,268.3 310.4,271.6 309.9,274.8 308.3,277.5 305.6,279.6 302.9,280.7 299.7,280.7 296.4,279.6 293.7,277.5 292.1,274.8 
	291.6,271.6 "/>
<polyline class="st0" points="291.6,163.7 292.1,160.5 293.7,157.3 296.4,155.7 299.7,154 302.9,154 305.6,155.7 308.3,157.3 
	309.9,160.5 310.4,163.7 309.9,167 308.3,169.7 305.6,171.8 302.9,172.9 299.7,172.9 296.4,171.8 293.7,169.7 292.1,167 
	291.6,163.7 "/>
<polyline class="st0" points="183.8,271.6 184.3,268.3 185.9,265.6 188.1,263.5 191.3,262.4 194.5,262.4 197.8,263.5 200.5,265.6 
	202.1,268.3 202.6,271.6 202.1,274.8 200.5,277.5 197.8,279.6 194.5,280.7 191.3,280.7 188.1,279.6 185.9,277.5 184.3,274.8 
	183.8,271.6 "/>
<polyline class="st0" points="183.8,163.7 184.3,160.5 185.9,157.3 188.1,155.7 191.3,154 194.5,154 197.8,155.7 200.5,157.3 
	202.1,160.5 202.6,163.7 202.1,167 200.5,169.7 197.8,171.8 194.5,172.9 191.3,172.9 188.1,171.8 185.9,169.7 184.3,167 
	183.8,163.7 "/>
<polyline class="st0" points="198.3,217.6 198.9,210.1 200.5,203.1 203.2,196.6 206.4,190.2 211.3,184.2 216.6,179.4 222.6,175.1 
	229,172.4 236,170.2 243.6,169.1 250.6,169.1 258.2,170.2 265.2,172.4 271.6,175.1 277.6,179.4 282.9,184.2 287.3,190.2 291,196.6 
	293.7,203.1 295.3,210.1 295.9,217.6 295.3,224.7 293.7,232.2 291,238.7 287.3,245.1 282.9,251.1 277.6,255.9 271.6,260.2 
	265.2,262.9 258.2,265.1 250.6,266.2 243.6,266.2 236,265.1 229,262.9 222.6,260.2 216.6,255.9 211.3,251.1 206.4,245.1 
	203.2,238.7 200.5,232.2 198.9,224.7 198.3,217.6 "/>
<polyline class="st0" points="157.9,217.6 158.4,221.4 160,225.2 162.7,227.9 166,229.5 169.7,230.6 173.5,230 177.3,229 180,226.3 
	182.1,223 183.8,219.8 183.8,215.5 182.1,212.3 180,209 177.3,206.3 173.5,204.7 169.7,204.7 166,205.8 162.7,207.4 160,210.1 
	158.4,213.9 157.9,217.6 "/>
<polyline class="st0" points="171.9,271.6 171.9,266.7 173.5,262.4 176.2,258.1 179.4,254.8 183.8,252.1 188.1,250.5 192.9,250 
	197.8,250.5 202.1,252.1 206.4,254.8 209.6,258.1 212.3,262.4 213.9,266.7 214.5,271.6 213.9,276.4 212.3,280.7 209.6,285 
	206.4,288.3 202.1,291 197.8,292.6 192.9,293.1 188.1,292.6 183.8,291 179.4,288.3 176.2,285 173.5,280.7 171.9,276.4 171.9,271.6 
	"/>
<polyline class="st0" points="279.7,271.6 280.3,266.7 281.9,262.4 284.6,258.1 287.8,254.8 291.6,252.1 296.4,250.5 301.3,250 
	305.6,250.5 310.4,252.1 314.2,254.8 318,258.1 320.1,262.4 321.8,266.7 322.3,271.6 321.8,276.4 320.1,280.7 318,285 314.2,288.3 
	310.4,291 305.6,292.6 301.3,293.1 296.4,292.6 291.6,291 287.8,288.3 284.6,285 281.9,280.7 280.3,276.4 279.7,271.6 "/>
<polyline class="st0" points="279.7,163.7 280.3,158.9 281.9,154.6 284.6,150.3 287.8,147 291.6,144.3 296.4,142.7 301.3,142.2 
	305.6,142.7 310.4,144.3 314.2,147 318,150.3 320.1,154.6 321.8,158.9 322.3,163.7 321.8,168.6 320.1,172.9 318,176.7 314.2,180.5 
	310.4,182.6 305.6,184.2 301.3,184.8 296.4,184.2 291.6,182.6 287.8,180.5 284.6,176.7 281.9,172.9 280.3,168.6 279.7,163.7 "/>
<polyline class="st0" points="171.9,163.7 171.9,158.9 173.5,154.6 176.2,150.3 179.4,147 183.8,144.3 188.1,142.7 192.9,142.2 
	197.8,142.7 202.1,144.3 206.4,147 209.6,150.3 212.3,154.6 213.9,158.9 214.5,163.7 213.9,168.6 212.3,172.9 209.6,176.7 
	206.4,180.5 202.1,182.6 197.8,184.2 192.9,184.8 188.1,184.2 183.8,182.6 179.4,180.5 176.2,176.7 173.5,172.9 171.9,168.6 
	171.9,163.7 "/>
<polyline class="st0" points="388.1,263.5 387.5,266.7 385.9,269.4 383.2,271.6 380,272.6 376.7,272.6 373.5,271.6 371.3,269.4 
	369.7,266.7 369.2,263.5 369.7,260.2 371.3,257.5 373.5,255.4 376.7,254.3 380,254.3 383.2,255.4 385.9,257.5 387.5,260.2 
	388.1,263.5 "/>
<polyline class="st0" points="125,263.5 124.5,266.7 122.8,269.4 120.2,271.6 117.5,272.6 114.2,272.6 111,271.6 108.3,269.4 
	106.7,266.7 106.1,263.5 106.7,260.2 108.3,257.5 111,255.4 114.2,254.3 117.5,254.3 120.2,255.4 122.8,257.5 124.5,260.2 
	125,263.5 "/>
<polyline class="st0" points="195.1,217.6 195.6,225.2 197.2,232.7 199.9,239.7 203.7,246.2 208.6,252.1 213.9,257.5 219.9,261.8 
	226.9,265.6 233.9,267.8 241.4,269.4 249,269.4 256.5,268.9 264.1,266.7 270.5,264 277,259.7 282.9,254.8 288.3,249.4 292.1,243 
	295.3,236 297.5,229 299.1,221.4 299.1,213.9 297.5,206.3 295.3,199.3 292.1,192.3 288.3,185.8 282.9,180.5 277,175.6 270.5,171.3 
	264.1,168.6 256.5,166.4 249,165.9 241.4,165.9 233.9,167.5 226.9,169.7 219.9,173.4 213.9,177.8 208.6,183.1 203.7,189.1 
	199.9,195.5 197.2,202.6 195.6,210.1 195.1,217.6 "/>
<polyline class="st0" points="376.7,239.2 373.5,238.7 370.8,237.6 368.1,236.5 366,234.4 363.8,231.7 362.7,229 361.6,226.3 
	361.6,223 "/>
<polyline class="st0" points="358.4,223 358.4,226.8 359.5,230 361.1,233.3 363.3,236.5 366.5,238.7 369.7,240.8 373,241.9 
	376.7,241.9 "/>
<polyline class="st0" points="323.9,298.5 327.7,295.3 331.5,292.6 335.2,290.4 339.5,288.3 343.9,286.6 348.7,285.6 353,285 
	357.9,285 "/>
<polyline class="st0" points="326.1,300.7 329.3,298 333.1,295.3 336.9,293.1 340.6,291 344.9,289.9 349.2,288.8 353.6,288.3 
	357.9,287.7 "/>
<polyline class="st0" points="326.1,300.7 317.4,308.2 307.7,314.7 297.5,320.6 286.7,324.9 275.9,328.7 264.6,330.8 252.8,331.9 
	241.4,331.9 229.6,330.8 218.3,328.7 206.9,324.9 196.7,320.6 186.5,314.7 176.8,308.2 168.1,300.7 "/>
<polyline class="st0" points="323.9,298.5 315.3,305.5 306.1,312 296.4,317.9 285.6,322.2 274.9,325.5 264.1,327.6 252.8,329.2 
	241.4,329.2 230.1,327.6 218.8,325.5 208,322.2 197.8,317.9 188.1,312 178.9,305.5 170.3,298.5 "/>
<polyline class="st0" points="132.6,223 132.6,226.3 131.5,229 130.4,231.7 128.2,234.4 126.1,236.5 123.4,237.6 120.2,238.7 
	117.5,239.2 "/>
<polyline class="st0" points="117.5,241.9 121.2,241.9 124.5,240.8 127.7,238.7 130.4,236.5 133.1,233.3 134.7,230 135.2,226.8 
	135.8,223 "/>
<polyline class="st0" points="135.8,223 135.8,211.7 136.9,200.9 139,190.2 142.3,179.9 146,169.7 151.4,160 157.3,151.3 
	164.4,142.7 172.4,135.2 180.5,128.2 189.7,121.7 199.4,116.8 209.6,112.5 219.9,109.3 230.7,107.1 241.4,106.1 252.8,106.1 
	263.5,107.1 274.3,109.3 284.6,112.5 294.8,116.8 304.5,121.7 313.7,128.2 321.8,135.2 329.8,142.7 336.3,151.3 342.8,160 
	347.6,169.7 351.9,179.9 355.2,190.2 357.3,200.9 358.4,211.7 358.4,223 "/>
<polyline class="st0" points="132.6,223 132.6,211.7 133.6,200.4 135.8,189.6 139,178.8 143.3,168.6 148.7,158.4 155.2,149.2 
	162.2,140.6 170.3,132.5 178.9,125.5 188.1,119.5 198.3,114.1 208.6,109.8 219.3,106.6 230.1,104.4 241.4,103.4 252.8,103.4 
	264.1,104.4 274.9,106.6 285.6,109.8 295.9,114.1 306.1,119.5 315.3,125.5 323.9,132.5 332,140.6 339,149.2 345.5,158.4 
	350.3,168.6 354.6,178.8 358.4,189.6 360.6,200.4 361.6,211.7 361.6,223 "/>
<line class="st0" x1="136.3" y1="285" x2="115.8" y2="285"/>
<line class="st0" x1="115.8" y1="287.7" x2="136.3" y2="287.7"/>
<polyline class="st0" points="115.8,287.7 110.5,287.2 105.1,285.6 100.2,282.3 96.4,278.6 93.7,274.2 91.6,268.9 91,263.5 
	91.6,258.1 93.7,252.7 96.4,248.4 100.2,244.6 105.1,241.4 110.5,239.7 115.8,239.2 "/>
<polyline class="st0" points="115.8,285 111,284.5 106.1,282.9 102.4,280.2 99.1,276.9 96.4,272.6 94.8,268.3 94.3,263.5 
	94.8,258.6 96.4,254.3 99.1,250 102.4,246.8 106.1,244.1 111,242.4 115.8,241.9 "/>
<polyline class="st0" points="170.3,298.5 166.5,295.3 162.7,292.6 159,290.4 154.7,288.3 150.3,286.6 145.5,285.6 141.2,285 
	136.3,285 "/>
<polyline class="st0" points="136.3,287.7 140.6,288.3 145,288.8 149.3,289.9 153.6,291 157.3,293.1 161.1,295.3 164.9,298 
	168.1,300.7 "/>
<line class="st0" x1="117.5" y1="241.9" x2="115.8" y2="241.9"/>
<line class="st0" x1="115.8" y1="239.2" x2="117.5" y2="239.2"/>
<line class="st0" x1="357.9" y1="285" x2="378.4" y2="285"/>
<line class="st0" x1="357.9" y1="287.7" x2="378.4" y2="287.7"/>
<line class="st0" x1="378.4" y1="239.2" x2="376.7" y2="239.2"/>
<line class="st0" x1="378.4" y1="241.9" x2="376.7" y2="241.9"/>
<polyline class="st0" points="378.4,239.2 383.7,239.7 389.1,241.4 393.5,244.6 397.8,248.4 400.5,252.7 402.1,258.1 403.2,263.5 
	402.1,268.9 400.5,274.2 397.8,278.6 393.5,282.3 389.1,285.6 383.7,287.2 378.4,287.7 "/>
<polyline class="st0" points="378.4,241.9 383.2,242.4 387.5,244.1 391.8,246.8 395.1,250 397.8,254.3 399.4,258.6 399.9,263.5 
	399.4,268.3 397.8,272.6 395.1,276.9 391.8,280.2 387.5,282.9 383.2,284.5 378.4,285 "/>
<rect x="1305.5" y="348.8" class="st0" width="43.3" height="12.4"/>
<path class="st0" d="M1348.8,315.7h-43.3V273l0,0c12.3-10.6,30.5-10.8,42.9-0.3l0.4,0.3L1348.8,315.7z"/>
<rect x="1307.3" y="315.9" class="st0" width="38.5" height="32.9"/>
<path class="st0" d="M1348.9,273.1L1348.9,273.1c10.3-15.3,10.3-35.3,0.2-50.6l-0.2-0.3h-64.7v50.9h21.3"/>
<path class="st0" d="M1264.1,218.3h14.8c2.7,0,5,2.2,5,5v48.8c0,2.7-2.2,5-5,5h-14.8V218.3z"/>
<line class="st0" x1="1264.3" y1="221.3" x2="1283.5" y2="221.3"/>
<line class="st0" x1="1264.3" y1="224.2" x2="1283.5" y2="224.2"/>
<line class="st0" x1="1264.3" y1="227" x2="1283.5" y2="227"/>
<line class="st0" x1="1264.3" y1="229.8" x2="1283.5" y2="229.8"/>
<line class="st0" x1="1264.3" y1="232.6" x2="1283.5" y2="232.6"/>
<line class="st0" x1="1264.3" y1="235.4" x2="1283.5" y2="235.4"/>
<line class="st0" x1="1264.3" y1="238.2" x2="1283.5" y2="238.2"/>
<line class="st0" x1="1264.3" y1="241" x2="1283.5" y2="241"/>
<line class="st0" x1="1264.3" y1="243.8" x2="1283.5" y2="243.8"/>
<line class="st0" x1="1264.3" y1="246.6" x2="1283.5" y2="246.6"/>
<line class="st0" x1="1264.3" y1="249.4" x2="1283.5" y2="249.4"/>
<line class="st0" x1="1264.3" y1="252.3" x2="1283.5" y2="252.3"/>
<line class="st0" x1="1264.3" y1="255.1" x2="1283.5" y2="255.1"/>
<line class="st0" x1="1264.3" y1="257.9" x2="1283.5" y2="257.9"/>
<line class="st0" x1="1264.3" y1="260.7" x2="1283.5" y2="260.7"/>
<line class="st0" x1="1264.3" y1="263.5" x2="1283.5" y2="263.5"/>
<line class="st0" x1="1264.3" y1="266.3" x2="1283.5" y2="266.3"/>
<line class="st0" x1="1264.3" y1="269.1" x2="1283.5" y2="269.1"/>
<line class="st0" x1="1264.3" y1="271.9" x2="1283.5" y2="271.9"/>
<line class="st0" x1="1264.3" y1="274.7" x2="1283.1" y2="274.7"/>
<polyline class="st0" points="1263.8,222.7 1236.4,224.7 1236.4,269.8 1263.8,271.7 "/>
<line class="st0" x1="1239.6" y1="224.7" x2="1239.6" y2="269.8"/>
<line class="st0" x1="1243" y1="224.7" x2="1243" y2="269.8"/>
<line class="st0" x1="1246.4" y1="224.7" x2="1246.4" y2="269.8"/>
<line class="st0" x1="1249.9" y1="224.7" x2="1249.9" y2="269.8"/>
<line class="st0" x1="1253.3" y1="223.7" x2="1253.3" y2="270.9"/>
<line class="st0" x1="1256.8" y1="223.2" x2="1256.8" y2="271.2"/>
<line class="st0" x1="1260.2" y1="223.2" x2="1260.2" y2="271.3"/>
<rect x="1229.3" y="225.7" class="st0" width="7" height="43"/>
<path class="st0" d="M1166.4,494.2h84.4c32.5,0,58.8-26.4,58.8-58.8v-73.9"/>
<path class="st0" d="M1344.2,361.5v73.9c-0.1,51.6-41.8,93.4-93.4,93.4h-84.4"/>
<text transform="matrix(1 0 0 1 828.9519 724.6476)" class="st1 st2 st3">BIO Gripper G2</text>
<text transform="matrix(1 0 0 1 134.193 617.9112)" class="st1 st2 st3">Cross countersunk head screws M6*10(6)</text>
<text transform="matrix(1 0 0 1 131.0564 376.5479)" class="st1 st2 st3">BIO Gripper G2 Adapter Plate</text>
<text transform="matrix(1 0 0 1 131.0564 497.0243)" class="st1 st2 st3">Cross countersunk head screws M6*8(4)</text>
<text transform="matrix(1 0 0 1 1107.0349 724.6476)" class="st1 st2 st3">Gripper Connection Cable</text>
<line class="st0" x1="1274.5" y1="690.3" x2="1274.5" y2="530.5"/>
<g>
	<line class="st0" x1="146.4" y1="551.5" x2="146.3" y2="548.9"/>
	<line class="st0" x1="151.2" y1="550.8" x2="151.2" y2="549.5"/>
	<line class="st0" x1="142" y1="551" x2="146.9" y2="551.5"/>
	<line class="st0" x1="141.6" y1="549.7" x2="142" y2="551"/>
	<line class="st0" x1="146.3" y1="548.9" x2="141.6" y2="549.7"/>
	<line class="st0" x1="151.2" y1="549.5" x2="146.3" y2="548.9"/>
	<line class="st0" x1="151.4" y1="550.8" x2="151.2" y2="549.5"/>
	<line class="st0" x1="146.9" y1="551.5" x2="151.4" y2="550.8"/>
	<polyline class="st0" points="153.3,558 152.7,558.4 151.2,558.8 149.3,559.1 146.9,559.2 144.6,559.2 142.5,558.9 140.8,558.5 
		139.9,558 	"/>
	<polyline class="st0" points="140.5,553 137.7,552.6 135.4,552.1 133.9,551.3 133.3,550.5 133.4,549.7 134.3,549 136.1,548.3 
		138.5,547.7 141.4,547.3 144.6,547.2 147.9,547.1 151.3,547.3 154.2,547.6 156.7,548.2 158.5,548.8 159.6,549.5 160,550.3 
		159.4,551.2 158.1,551.9 156,552.4 153.3,553 150.2,553.3 147,553.4 143.6,553.4 140.5,553 	"/>
	<line class="st0" x1="153.5" y1="578.2" x2="153.4" y2="557.6"/>
	<line class="st0" x1="139.7" y1="557.7" x2="139.8" y2="578.2"/>
	<line class="st0" x1="153.3" y1="558" x2="159.9" y2="551.8"/>
	<line class="st0" x1="133.3" y1="551.8" x2="139.9" y2="558"/>
	<line class="st0" x1="140.3" y1="578.6" x2="153.1" y2="578.6"/>
	<line class="st0" x1="140.3" y1="574.5" x2="153.1" y2="574.5"/>
	<line class="st0" x1="140.3" y1="570.5" x2="153.1" y2="570.5"/>
	<line class="st0" x1="140.3" y1="566.4" x2="153.1" y2="566.4"/>
	<line class="st0" x1="140.3" y1="562.3" x2="153.1" y2="562.3"/>
</g>
<g>
	<line class="st0" x1="256.5" y1="551.5" x2="256.4" y2="548.9"/>
	<line class="st0" x1="261.3" y1="550.8" x2="261.2" y2="549.5"/>
	<line class="st0" x1="252.1" y1="551" x2="256.9" y2="551.5"/>
	<line class="st0" x1="251.7" y1="549.7" x2="252.1" y2="551"/>
	<line class="st0" x1="256.4" y1="548.9" x2="251.7" y2="549.7"/>
	<line class="st0" x1="261.2" y1="549.5" x2="256.4" y2="548.9"/>
	<line class="st0" x1="261.4" y1="550.8" x2="261.2" y2="549.5"/>
	<line class="st0" x1="256.9" y1="551.5" x2="261.4" y2="550.8"/>
	<polyline class="st0" points="263.3,558 262.7,558.4 261.3,558.8 259.3,559.1 256.9,559.2 254.6,559.2 252.5,558.9 250.9,558.5 
		249.9,558 	"/>
	<polyline class="st0" points="250.5,553 247.7,552.6 245.5,552.1 244,551.3 243.3,550.5 243.4,549.7 244.4,549 246.1,548.3 
		248.5,547.7 251.4,547.3 254.7,547.2 257.9,547.1 261.3,547.3 264.2,547.6 266.7,548.2 268.5,548.8 269.7,549.5 270,550.3 
		269.4,551.2 268.1,551.9 266,552.4 263.3,553 260.2,553.3 257,553.4 253.6,553.4 250.5,553 	"/>
	<line class="st0" x1="263.6" y1="578.2" x2="263.5" y2="557.6"/>
	<line class="st0" x1="249.7" y1="557.7" x2="249.8" y2="578.2"/>
	<line class="st0" x1="263.3" y1="558" x2="269.9" y2="551.8"/>
	<line class="st0" x1="243.3" y1="551.8" x2="249.9" y2="558"/>
	<line class="st0" x1="250.3" y1="578.6" x2="263.1" y2="578.6"/>
	<line class="st0" x1="250.3" y1="574.5" x2="263.1" y2="574.5"/>
	<line class="st0" x1="250.3" y1="570.5" x2="263.1" y2="570.5"/>
	<line class="st0" x1="250.3" y1="566.4" x2="263.1" y2="566.4"/>
	<line class="st0" x1="250.3" y1="562.3" x2="263.1" y2="562.3"/>
</g>
<g>
	<line class="st0" x1="201.4" y1="551.5" x2="201.3" y2="548.9"/>
	<line class="st0" x1="206.3" y1="550.8" x2="206.2" y2="549.5"/>
	<line class="st0" x1="197" y1="551" x2="201.9" y2="551.5"/>
	<line class="st0" x1="196.7" y1="549.7" x2="197" y2="551"/>
	<line class="st0" x1="201.3" y1="548.9" x2="196.7" y2="549.7"/>
	<line class="st0" x1="206.2" y1="549.5" x2="201.3" y2="548.9"/>
	<line class="st0" x1="206.4" y1="550.8" x2="206.2" y2="549.5"/>
	<line class="st0" x1="201.9" y1="551.5" x2="206.4" y2="550.8"/>
	<polyline class="st0" points="208.3,558 207.7,558.4 206.2,558.8 204.3,559.1 201.9,559.2 199.6,559.2 197.5,558.9 195.9,558.5 
		194.9,558 	"/>
	<polyline class="st0" points="195.5,553 192.7,552.6 190.4,552.1 189,551.3 188.3,550.5 188.4,549.7 189.4,549 191.1,548.3 
		193.5,547.7 196.4,547.3 199.7,547.2 202.9,547.1 206.3,547.3 209.2,547.6 211.7,548.2 213.5,548.8 214.6,549.5 215,550.3 
		214.4,551.2 213.1,551.9 211,552.4 208.3,553 205.2,553.3 202,553.4 198.6,553.4 195.5,553 	"/>
	<line class="st0" x1="208.5" y1="578.2" x2="208.5" y2="557.6"/>
	<line class="st0" x1="194.7" y1="557.7" x2="194.8" y2="578.2"/>
	<line class="st0" x1="208.3" y1="558" x2="214.9" y2="551.8"/>
	<line class="st0" x1="188.3" y1="551.8" x2="194.9" y2="558"/>
	<line class="st0" x1="195.3" y1="578.6" x2="208.1" y2="578.6"/>
	<line class="st0" x1="195.3" y1="574.5" x2="208.1" y2="574.5"/>
	<line class="st0" x1="195.3" y1="570.5" x2="208.1" y2="570.5"/>
	<line class="st0" x1="195.3" y1="566.4" x2="208.1" y2="566.4"/>
	<line class="st0" x1="195.3" y1="562.3" x2="208.1" y2="562.3"/>
</g>
<g>
	<line class="st0" x1="311.5" y1="551.5" x2="311.4" y2="548.9"/>
	<line class="st0" x1="316.3" y1="550.8" x2="316.3" y2="549.5"/>
	<line class="st0" x1="307.1" y1="551" x2="312" y2="551.5"/>
	<line class="st0" x1="306.7" y1="549.7" x2="307.1" y2="551"/>
	<line class="st0" x1="311.4" y1="548.9" x2="306.7" y2="549.7"/>
	<line class="st0" x1="316.3" y1="549.5" x2="311.4" y2="548.9"/>
	<line class="st0" x1="316.5" y1="550.8" x2="316.3" y2="549.5"/>
	<line class="st0" x1="312" y1="551.5" x2="316.5" y2="550.8"/>
	<polyline class="st0" points="318.4,558 317.7,558.4 316.3,558.8 314.3,559.1 311.9,559.2 309.6,559.2 307.5,558.9 305.9,558.5 
		304.9,558 	"/>
	<polyline class="st0" points="305.5,553 302.8,552.6 300.5,552.1 299,551.3 298.3,550.5 298.5,549.7 299.4,549 301.2,548.3 
		303.6,547.7 306.5,547.3 309.7,547.2 312.9,547.1 316.3,547.3 319.3,547.6 321.7,548.2 323.5,548.8 324.7,549.5 325,550.3 
		324.4,551.2 323.1,551.9 321.1,552.4 318.3,553 315.3,553.3 312,553.4 308.6,553.4 305.5,553 	"/>
	<line class="st0" x1="318.6" y1="578.2" x2="318.5" y2="557.6"/>
	<line class="st0" x1="304.7" y1="557.7" x2="304.8" y2="578.2"/>
	<line class="st0" x1="318.4" y1="558" x2="324.9" y2="551.8"/>
	<line class="st0" x1="298.4" y1="551.8" x2="304.9" y2="558"/>
	<line class="st0" x1="305.3" y1="578.6" x2="318.1" y2="578.6"/>
	<line class="st0" x1="305.3" y1="574.5" x2="318.1" y2="574.5"/>
	<line class="st0" x1="305.3" y1="570.5" x2="318.1" y2="570.5"/>
	<line class="st0" x1="305.3" y1="566.4" x2="318.1" y2="566.4"/>
	<line class="st0" x1="305.3" y1="562.3" x2="318.1" y2="562.3"/>
</g>
<g>
	<line class="st0" x1="366.5" y1="551.5" x2="366.4" y2="548.9"/>
	<line class="st0" x1="371.3" y1="550.8" x2="371.3" y2="549.5"/>
	<line class="st0" x1="362.1" y1="551" x2="367" y2="551.5"/>
	<line class="st0" x1="361.7" y1="549.7" x2="362.1" y2="551"/>
	<line class="st0" x1="366.4" y1="548.9" x2="361.7" y2="549.7"/>
	<line class="st0" x1="371.3" y1="549.5" x2="366.4" y2="548.9"/>
	<line class="st0" x1="371.5" y1="550.8" x2="371.3" y2="549.5"/>
	<line class="st0" x1="367" y1="551.5" x2="371.5" y2="550.8"/>
	<polyline class="st0" points="373.4,558 372.7,558.4 371.3,558.8 369.4,559.1 366.9,559.2 364.7,559.2 362.6,558.9 360.9,558.5 
		359.9,558 	"/>
	<polyline class="st0" points="360.6,553 357.8,552.6 355.5,552.1 354,551.3 353.3,550.5 353.5,549.7 354.4,549 356.2,548.3 
		358.6,547.7 361.5,547.3 364.7,547.2 367.9,547.1 371.4,547.3 374.3,547.6 376.7,548.2 378.5,548.8 379.7,549.5 380,550.3 
		379.4,551.2 378.2,551.9 376.1,552.4 373.3,553 370.3,553.3 367,553.4 363.6,553.4 360.6,553 	"/>
	<line class="st0" x1="373.6" y1="578.2" x2="373.5" y2="557.6"/>
	<line class="st0" x1="359.8" y1="557.7" x2="359.8" y2="578.2"/>
	<line class="st0" x1="373.4" y1="558" x2="379.9" y2="551.8"/>
	<line class="st0" x1="353.4" y1="551.8" x2="359.9" y2="558"/>
	<line class="st0" x1="360.4" y1="578.6" x2="373.1" y2="578.6"/>
	<line class="st0" x1="360.4" y1="574.5" x2="373.1" y2="574.5"/>
	<line class="st0" x1="360.4" y1="570.5" x2="373.1" y2="570.5"/>
	<line class="st0" x1="360.4" y1="566.4" x2="373.1" y2="566.4"/>
	<line class="st0" x1="360.4" y1="562.3" x2="373.1" y2="562.3"/>
</g>
<g>
	<line class="st0" x1="421.5" y1="551.5" x2="421.4" y2="548.9"/>
	<line class="st0" x1="426.3" y1="550.8" x2="426.3" y2="549.5"/>
	<line class="st0" x1="417.1" y1="551" x2="422" y2="551.5"/>
	<line class="st0" x1="416.7" y1="549.7" x2="417.1" y2="551"/>
	<line class="st0" x1="421.4" y1="548.9" x2="416.7" y2="549.7"/>
	<line class="st0" x1="426.3" y1="549.5" x2="421.4" y2="548.9"/>
	<line class="st0" x1="426.5" y1="550.8" x2="426.3" y2="549.5"/>
	<line class="st0" x1="422" y1="551.5" x2="426.5" y2="550.8"/>
	<polyline class="st0" points="428.4,558 427.8,558.4 426.3,558.8 424.4,559.1 422,559.2 419.7,559.2 417.6,558.9 415.9,558.5 
		415,558 	"/>
	<polyline class="st0" points="415.6,553 412.8,552.6 410.5,552.1 409,551.3 408.4,550.5 408.5,549.7 409.4,549 411.2,548.3 
		413.6,547.7 416.5,547.3 419.7,547.2 423,547.1 426.4,547.3 429.3,547.6 431.7,548.2 433.6,548.8 434.7,549.5 435.1,550.3 
		434.5,551.2 433.2,551.9 431.1,552.4 428.4,553 425.3,553.3 422.1,553.4 418.7,553.4 415.6,553 	"/>
	<line class="st0" x1="428.6" y1="578.2" x2="428.5" y2="557.6"/>
	<line class="st0" x1="414.8" y1="557.7" x2="414.9" y2="578.2"/>
	<line class="st0" x1="428.4" y1="558" x2="435" y2="551.8"/>
	<line class="st0" x1="408.4" y1="551.8" x2="415" y2="558"/>
	<line class="st0" x1="415.4" y1="578.6" x2="428.2" y2="578.6"/>
	<line class="st0" x1="415.4" y1="574.5" x2="428.2" y2="574.5"/>
	<line class="st0" x1="415.4" y1="570.5" x2="428.2" y2="570.5"/>
	<line class="st0" x1="415.4" y1="566.4" x2="428.2" y2="566.4"/>
	<line class="st0" x1="415.4" y1="562.3" x2="428.2" y2="562.3"/>
</g>
<text transform="matrix(1 0 0 1 135.5446 736.9985)" class="st1 st2 st3">Cross countersunk head screws M6*12(4)</text>
<line class="st0" x1="146.3" y1="662.7" x2="146.2" y2="660.1"/>
<line class="st0" x1="151.1" y1="662" x2="151" y2="660.7"/>
<line class="st0" x1="141.9" y1="662.2" x2="146.8" y2="662.6"/>
<line class="st0" x1="141.6" y1="660.9" x2="141.9" y2="662.2"/>
<line class="st0" x1="146.2" y1="660.1" x2="141.6" y2="660.9"/>
<line class="st0" x1="151" y1="660.7" x2="146.2" y2="660.1"/>
<line class="st0" x1="151.2" y1="662" x2="151" y2="660.7"/>
<line class="st0" x1="146.8" y1="662.6" x2="151.2" y2="662"/>
<polyline class="st0" points="153.1,669.1 152.5,669.5 151,669.9 149.1,670.2 146.7,670.3 144.5,670.3 142.4,670 140.8,669.6 
	139.8,669.1 "/>
<polyline class="st0" points="140.4,664.2 137.7,663.8 135.4,663.2 133.9,662.5 133.3,661.7 133.4,660.9 134.3,660.2 136.1,659.5 
	138.4,658.9 141.3,658.5 144.5,658.4 147.7,658.3 151.1,658.5 154,658.8 156.4,659.4 158.2,660 159.4,660.7 159.7,661.5 
	159.1,662.3 157.8,663 155.8,663.6 153.1,664.2 150,664.4 146.8,664.6 143.5,664.5 140.4,664.2 "/>
<line class="st0" x1="153.3" y1="697.5" x2="153.3" y2="668.7"/>
<line class="st0" x1="139.6" y1="668.9" x2="139.7" y2="697.5"/>
<line class="st0" x1="153.1" y1="669.1" x2="159.6" y2="663"/>
<line class="st0" x1="133.3" y1="663" x2="139.8" y2="669.1"/>
<line class="st0" x1="140.2" y1="689.5" x2="152.9" y2="689.5"/>
<line class="st0" x1="140.2" y1="685.5" x2="152.9" y2="685.5"/>
<line class="st0" x1="140.2" y1="697.5" x2="152.9" y2="697.5"/>
<line class="st0" x1="140.2" y1="693.5" x2="152.9" y2="693.5"/>
<line class="st0" x1="140.2" y1="681.4" x2="152.9" y2="681.4"/>
<line class="st0" x1="140.2" y1="677.4" x2="152.9" y2="677.4"/>
<line class="st0" x1="140.2" y1="673.4" x2="152.9" y2="673.4"/>
<line class="st0" x1="201.7" y1="662.7" x2="201.6" y2="660.1"/>
<line class="st0" x1="206.5" y1="662" x2="206.5" y2="660.7"/>
<line class="st0" x1="197.4" y1="662.2" x2="202.2" y2="662.6"/>
<line class="st0" x1="197" y1="660.9" x2="197.4" y2="662.2"/>
<line class="st0" x1="201.6" y1="660.1" x2="197" y2="660.9"/>
<line class="st0" x1="206.5" y1="660.7" x2="201.6" y2="660.1"/>
<line class="st0" x1="206.7" y1="662" x2="206.5" y2="660.7"/>
<line class="st0" x1="202.2" y1="662.6" x2="206.7" y2="662"/>
<polyline class="st0" points="208.5,669.1 207.9,669.5 206.5,669.9 204.6,670.2 202.2,670.3 199.9,670.3 197.8,670 196.2,669.6 
	195.2,669.1 "/>
<polyline class="st0" points="195.8,664.2 193.1,663.8 190.8,663.2 189.4,662.5 188.7,661.7 188.8,660.9 189.8,660.2 191.5,659.5 
	193.9,658.9 196.7,658.5 200,658.4 203.2,658.3 206.5,658.5 209.4,658.8 211.9,659.4 213.6,660 214.8,660.7 215.1,661.5 
	214.5,662.3 213.3,663 211.2,663.6 208.5,664.2 205.5,664.4 202.3,664.6 198.9,664.5 195.8,664.2 "/>
<line class="st0" x1="208.7" y1="697.5" x2="208.7" y2="668.7"/>
<line class="st0" x1="195.1" y1="668.9" x2="195.1" y2="697.5"/>
<line class="st0" x1="208.5" y1="669.1" x2="215" y2="663"/>
<line class="st0" x1="188.7" y1="663" x2="195.2" y2="669.1"/>
<line class="st0" x1="195.6" y1="689.5" x2="208.3" y2="689.5"/>
<line class="st0" x1="195.6" y1="685.5" x2="208.3" y2="685.5"/>
<line class="st0" x1="195.6" y1="697.5" x2="208.3" y2="697.5"/>
<line class="st0" x1="195.6" y1="693.5" x2="208.3" y2="693.5"/>
<line class="st0" x1="195.6" y1="681.4" x2="208.3" y2="681.4"/>
<line class="st0" x1="195.6" y1="677.4" x2="208.3" y2="677.4"/>
<line class="st0" x1="195.6" y1="673.4" x2="208.3" y2="673.4"/>
<line class="st0" x1="252.9" y1="662.7" x2="252.8" y2="660.1"/>
<line class="st0" x1="257.7" y1="662" x2="257.6" y2="660.7"/>
<line class="st0" x1="248.5" y1="662.2" x2="253.3" y2="662.6"/>
<line class="st0" x1="248.2" y1="660.9" x2="248.5" y2="662.2"/>
<line class="st0" x1="252.8" y1="660.1" x2="248.2" y2="660.9"/>
<line class="st0" x1="257.6" y1="660.7" x2="252.8" y2="660.1"/>
<line class="st0" x1="257.8" y1="662" x2="257.6" y2="660.7"/>
<line class="st0" x1="253.3" y1="662.6" x2="257.8" y2="662"/>
<polyline class="st0" points="259.7,669.1 259.1,669.5 257.6,669.9 255.7,670.2 253.3,670.3 251.1,670.3 249,670 247.4,669.6 
	246.4,669.1 "/>
<polyline class="st0" points="247,664.2 244.2,663.8 242,663.2 240.5,662.5 239.8,661.7 240,660.9 240.9,660.2 242.6,659.5 
	245,658.9 247.9,658.5 251.1,658.4 254.3,658.3 257.7,658.5 260.6,658.8 263,659.4 264.8,660 265.9,660.7 266.3,661.5 265.7,662.3 
	264.4,663 262.4,663.6 259.7,664.2 256.6,664.4 253.4,664.6 250.1,664.5 247,664.2 "/>
<line class="st0" x1="259.9" y1="697.5" x2="259.8" y2="668.7"/>
<line class="st0" x1="246.2" y1="668.9" x2="246.3" y2="697.5"/>
<line class="st0" x1="259.7" y1="669.1" x2="266.2" y2="663"/>
<line class="st0" x1="239.9" y1="663" x2="246.4" y2="669.1"/>
<line class="st0" x1="246.8" y1="689.5" x2="259.5" y2="689.5"/>
<line class="st0" x1="246.8" y1="685.5" x2="259.5" y2="685.5"/>
<line class="st0" x1="246.8" y1="697.5" x2="259.5" y2="697.5"/>
<line class="st0" x1="246.8" y1="693.5" x2="259.5" y2="693.5"/>
<line class="st0" x1="246.8" y1="681.4" x2="259.5" y2="681.4"/>
<line class="st0" x1="246.8" y1="677.4" x2="259.5" y2="677.4"/>
<line class="st0" x1="246.8" y1="673.4" x2="259.5" y2="673.4"/>
<line class="st0" x1="305.1" y1="662.7" x2="305" y2="660.1"/>
<line class="st0" x1="309.9" y1="662" x2="309.8" y2="660.7"/>
<line class="st0" x1="300.7" y1="662.2" x2="305.5" y2="662.6"/>
<line class="st0" x1="300.4" y1="660.9" x2="300.7" y2="662.2"/>
<line class="st0" x1="305" y1="660.1" x2="300.4" y2="660.9"/>
<line class="st0" x1="309.8" y1="660.7" x2="305" y2="660.1"/>
<line class="st0" x1="310" y1="662" x2="309.8" y2="660.7"/>
<line class="st0" x1="305.5" y1="662.6" x2="310" y2="662"/>
<polyline class="st0" points="311.9,669.1 311.3,669.5 309.8,669.9 307.9,670.2 305.5,670.3 303.3,670.3 301.2,670 299.6,669.6 
	298.6,669.1 "/>
<polyline class="st0" points="299.2,664.2 296.4,663.8 294.2,663.2 292.7,662.5 292,661.7 292.2,660.9 293.1,660.2 294.8,659.5 
	297.2,658.9 300.1,658.5 303.3,658.4 306.5,658.3 309.9,658.5 312.8,658.8 315.2,659.4 317,660 318.1,660.7 318.5,661.5 
	317.9,662.3 316.6,663 314.6,663.6 311.9,664.2 308.8,664.4 305.6,664.6 302.3,664.5 299.2,664.2 "/>
<line class="st0" x1="312.1" y1="697.5" x2="312" y2="668.7"/>
<line class="st0" x1="298.4" y1="668.9" x2="298.5" y2="697.5"/>
<line class="st0" x1="311.9" y1="669.1" x2="318.4" y2="663"/>
<line class="st0" x1="292.1" y1="663" x2="298.6" y2="669.1"/>
<line class="st0" x1="299" y1="689.5" x2="311.7" y2="689.5"/>
<line class="st0" x1="299" y1="685.5" x2="311.7" y2="685.5"/>
<line class="st0" x1="299" y1="697.5" x2="311.7" y2="697.5"/>
<line class="st0" x1="299" y1="693.5" x2="311.7" y2="693.5"/>
<line class="st0" x1="299" y1="681.4" x2="311.7" y2="681.4"/>
<line class="st0" x1="299" y1="677.4" x2="311.7" y2="677.4"/>
<line class="st0" x1="299" y1="673.4" x2="311.7" y2="673.4"/>
<g>
	<line class="st0" x1="208.1" y1="433" x2="208" y2="430.4"/>
	<line class="st0" x1="213" y1="432.4" x2="212.9" y2="431.1"/>
	<line class="st0" x1="203.7" y1="432.6" x2="208.6" y2="433"/>
	<line class="st0" x1="203.3" y1="431.3" x2="203.7" y2="432.6"/>
	<line class="st0" x1="208" y1="430.4" x2="203.3" y2="431.3"/>
	<line class="st0" x1="212.9" y1="431.1" x2="208" y2="430.4"/>
	<line class="st0" x1="213.1" y1="432.4" x2="212.9" y2="431.1"/>
	<line class="st0" x1="208.6" y1="433" x2="213.1" y2="432.4"/>
	<polyline class="st0" points="215,439.7 214.4,440 212.9,440.4 211,440.8 208.5,440.9 206.3,440.8 204.1,440.6 202.5,440.1 
		201.5,439.7 	"/>
	<polyline class="st0" points="202.1,434.6 199.3,434.2 197,433.6 195.5,432.9 194.8,432.1 194.9,431.2 195.9,430.6 197.7,429.8 
		200.1,429.3 203,428.8 206.3,428.7 209.6,428.6 213,428.8 216,429.2 218.4,429.7 220.3,430.3 221.4,431.1 221.8,431.9 221.2,432.7 
		219.9,433.4 217.8,434 215,434.6 211.9,434.9 208.7,435 205.2,435 202.1,434.6 	"/>
	<line class="st0" x1="215.3" y1="456" x2="215.2" y2="439.2"/>
	<line class="st0" x1="201.3" y1="439.4" x2="201.4" y2="456"/>
	<line class="st0" x1="215" y1="439.7" x2="221.7" y2="433.4"/>
	<line class="st0" x1="194.9" y1="433.4" x2="201.5" y2="439.7"/>
	<polyline class="st0" points="222,433 222,432.9 222.1,432 222.1,431.7 	"/>
	<line class="st0" x1="201.9" y1="456.3" x2="214.8" y2="456.3"/>
	<line class="st0" x1="201.9" y1="452.2" x2="214.8" y2="452.2"/>
	<line class="st0" x1="201.9" y1="448.1" x2="214.8" y2="448.1"/>
	<line class="st0" x1="201.9" y1="444" x2="214.8" y2="444"/>
</g>
<g>
	<line class="st0" x1="146.5" y1="433" x2="146.4" y2="430.4"/>
	<line class="st0" x1="151.4" y1="432.4" x2="151.4" y2="431.1"/>
	<path class="st0" d="M139.8,467.8"/>
	<line class="st0" x1="142.1" y1="432.6" x2="147" y2="433"/>
	<line class="st0" x1="141.7" y1="431.3" x2="142.1" y2="432.6"/>
	<line class="st0" x1="146.4" y1="430.4" x2="141.7" y2="431.3"/>
	<line class="st0" x1="151.4" y1="431.1" x2="146.4" y2="430.4"/>
	<line class="st0" x1="151.6" y1="432.4" x2="151.4" y2="431.1"/>
	<line class="st0" x1="147" y1="433" x2="151.6" y2="432.4"/>
	<polyline class="st0" points="153.5,439.7 152.9,440 151.4,440.4 149.5,440.8 147,440.9 144.7,440.8 142.6,440.6 140.9,440.1 
		139.9,439.7 	"/>
	<polyline class="st0" points="140.5,434.6 137.8,434.2 135.4,433.6 133.9,432.9 133.3,432.1 133.4,431.2 134.3,430.6 136.1,429.8 
		138.6,429.3 141.5,428.8 144.7,428.7 148,428.6 151.5,428.8 154.4,429.2 156.9,429.7 158.7,430.3 159.9,431.1 160.2,431.9 
		159.6,432.7 158.3,433.4 156.2,434 153.5,434.6 150.4,434.9 147.1,435 143.7,435 140.5,434.6 	"/>
	<line class="st0" x1="153.7" y1="456" x2="153.6" y2="439.2"/>
	<line class="st0" x1="139.8" y1="439.4" x2="139.8" y2="456"/>
	<line class="st0" x1="153.5" y1="439.7" x2="160.1" y2="433.4"/>
	<line class="st0" x1="133.3" y1="433.4" x2="139.9" y2="439.7"/>
	<polyline class="st0" points="160.4,433 160.4,432.9 160.6,432 160.6,431.7 	"/>
	<line class="st0" x1="140.4" y1="456.3" x2="153.3" y2="456.3"/>
	<line class="st0" x1="140.4" y1="452.2" x2="153.3" y2="452.2"/>
	<line class="st0" x1="140.4" y1="448.1" x2="153.3" y2="448.1"/>
	<line class="st0" x1="140.4" y1="444" x2="153.3" y2="444"/>
</g>
<g>
	<line class="st0" x1="331.2" y1="433" x2="331.1" y2="430.4"/>
	<line class="st0" x1="336.1" y1="432.4" x2="336" y2="431.1"/>
	<line class="st0" x1="326.7" y1="432.6" x2="331.7" y2="433"/>
	<line class="st0" x1="326.4" y1="431.3" x2="326.7" y2="432.6"/>
	<line class="st0" x1="331.1" y1="430.4" x2="326.4" y2="431.3"/>
	<line class="st0" x1="336" y1="431.1" x2="331.1" y2="430.4"/>
	<line class="st0" x1="336.2" y1="432.4" x2="336" y2="431.1"/>
	<line class="st0" x1="331.7" y1="433" x2="336.2" y2="432.4"/>
	<polyline class="st0" points="338.1,439.7 337.5,440 336,440.4 334.1,440.8 331.6,440.9 329.3,440.8 327.2,440.6 325.6,440.1 
		324.6,439.7 	"/>
	<polyline class="st0" points="325.2,434.6 322.4,434.2 320.1,433.6 318.6,432.9 317.9,432.1 318,431.2 319,430.6 320.8,429.8 
		323.2,429.3 326.1,428.8 329.4,428.7 332.6,428.6 336.1,428.8 339.1,429.2 341.5,429.7 343.3,430.3 344.5,431.1 344.9,431.9 
		344.3,432.7 343,433.4 340.9,434 338.1,434.6 335,434.9 331.7,435 328.3,435 325.2,434.6 	"/>
	<line class="st0" x1="338.4" y1="456" x2="338.3" y2="439.2"/>
	<line class="st0" x1="324.4" y1="439.4" x2="324.5" y2="456"/>
	<line class="st0" x1="338.1" y1="439.7" x2="344.8" y2="433.4"/>
	<line class="st0" x1="317.9" y1="433.4" x2="324.6" y2="439.7"/>
	<polyline class="st0" points="345.1,433 345.1,432.9 345.2,432 345.2,431.7 	"/>
	<line class="st0" x1="325" y1="456.3" x2="337.9" y2="456.3"/>
	<line class="st0" x1="325" y1="452.2" x2="337.9" y2="452.2"/>
	<line class="st0" x1="325" y1="448.1" x2="337.9" y2="448.1"/>
	<line class="st0" x1="325" y1="444" x2="337.9" y2="444"/>
</g>
<g>
	<line class="st0" x1="269.6" y1="433" x2="269.5" y2="430.4"/>
	<line class="st0" x1="274.5" y1="432.4" x2="274.5" y2="431.1"/>
	<line class="st0" x1="265.2" y1="432.6" x2="270.1" y2="433"/>
	<line class="st0" x1="264.8" y1="431.3" x2="265.2" y2="432.6"/>
	<line class="st0" x1="269.5" y1="430.4" x2="264.8" y2="431.3"/>
	<line class="st0" x1="274.5" y1="431.1" x2="269.5" y2="430.4"/>
	<line class="st0" x1="274.7" y1="432.4" x2="274.5" y2="431.1"/>
	<line class="st0" x1="270.1" y1="433" x2="274.7" y2="432.4"/>
	<polyline class="st0" points="276.6,439.7 275.9,440 274.5,440.4 272.5,440.8 270.1,440.9 267.8,440.8 265.7,440.6 264,440.1 
		263,439.7 	"/>
	<polyline class="st0" points="263.6,434.6 260.8,434.2 258.5,433.6 257,432.9 256.3,432.1 256.5,431.2 257.4,430.6 259.2,429.8 
		261.6,429.3 264.6,428.8 267.8,428.7 271.1,428.6 274.5,428.8 277.5,429.2 280,429.7 281.8,430.3 283,431.1 283.3,431.9 
		282.7,432.7 281.4,433.4 279.3,434 276.6,434.6 273.5,434.9 270.2,435 266.8,435 263.6,434.6 	"/>
	<line class="st0" x1="276.8" y1="456" x2="276.7" y2="439.2"/>
	<line class="st0" x1="262.8" y1="439.4" x2="262.9" y2="456"/>
	<line class="st0" x1="276.6" y1="439.7" x2="283.2" y2="433.4"/>
	<line class="st0" x1="256.4" y1="433.4" x2="263" y2="439.7"/>
	<polyline class="st0" points="283.5,433 283.5,432.9 283.7,432 283.7,431.7 	"/>
	<line class="st0" x1="263.5" y1="456.3" x2="276.4" y2="456.3"/>
	<line class="st0" x1="263.5" y1="452.2" x2="276.4" y2="452.2"/>
	<line class="st0" x1="263.5" y1="448.1" x2="276.4" y2="448.1"/>
	<line class="st0" x1="263.5" y1="444" x2="276.4" y2="444"/>
</g>
</svg>
